<?xml version="1.0" encoding="utf-8"?>
<svg viewBox="0 0 500 500" xmlns="http://www.w3.org/2000/svg">
  <defs>
    <filter id="filter0_d_21_4106" x="484.333" y="249.3" width="171.62" height="171.62" filterUnits="userSpaceOnUse" color-interpolation-filters="sRGB">
      <feFlood flood-opacity="0" result="BackgroundImageFix"/>
      <feColorMatrix in="SourceAlpha" type="matrix" values="0 0 0 0 0 0 0 0 0 0 0 0 0 0 0 0 0 0 127 0" result="hardAlpha"/>
      <feOffset dy="4"/>
      <feGaussianBlur stdDeviation="25"/>
      <feComposite in2="hardAlpha" operator="out"/>
      <feColorMatrix type="matrix" values="0 0 0 0 0 0 0 0 0 0 0 0 0 0 0 0 0 0 0.5 0"/>
      <feBlend mode="normal" in2="BackgroundImageFix" result="effect1_dropShadow_21_4106"/>
      <feBlend mode="normal" in="SourceGraphic" in2="effect1_dropShadow_21_4106" result="shape"/>
    </filter>
    <filter id="filter1_d_21_4106" x="0" y="157.984" width="171.62" height="171.62" filterUnits="userSpaceOnUse" color-interpolation-filters="sRGB">
      <feFlood flood-opacity="0" result="BackgroundImageFix"/>
      <feColorMatrix in="SourceAlpha" type="matrix" values="0 0 0 0 0 0 0 0 0 0 0 0 0 0 0 0 0 0 127 0" result="hardAlpha"/>
      <feOffset dy="4"/>
      <feGaussianBlur stdDeviation="25"/>
      <feComposite in2="hardAlpha" operator="out"/>
      <feColorMatrix type="matrix" values="0 0 0 0 0 0 0 0 0 0 0 0 0 0 0 0 0 0 0.5 0"/>
      <feBlend mode="normal" in2="BackgroundImageFix" result="effect1_dropShadow_21_4106"/>
      <feBlend mode="normal" in="SourceGraphic" in2="effect1_dropShadow_21_4106" result="shape"/>
    </filter>
    <filter id="filter2_d_21_4106" x="0" y="387.169" width="171.62" height="171.62" filterUnits="userSpaceOnUse" color-interpolation-filters="sRGB">
      <feFlood flood-opacity="0" result="BackgroundImageFix"/>
      <feColorMatrix in="SourceAlpha" type="matrix" values="0 0 0 0 0 0 0 0 0 0 0 0 0 0 0 0 0 0 127 0" result="hardAlpha"/>
      <feOffset dy="4"/>
      <feGaussianBlur stdDeviation="25"/>
      <feComposite in2="hardAlpha" operator="out"/>
      <feColorMatrix type="matrix" values="0 0 0 0 0 0 0 0 0 0 0 0 0 0 0 0 0 0 0.5 0"/>
      <feBlend mode="normal" in2="BackgroundImageFix" result="effect1_dropShadow_21_4106"/>
      <feBlend mode="normal" in="SourceGraphic" in2="effect1_dropShadow_21_4106" result="shape"/>
    </filter>
    <filter id="filter3_f_21_4106" x="4.47626" y="0" width="610.296" height="610.296" filterUnits="userSpaceOnUse" color-interpolation-filters="sRGB">
      <feFlood flood-opacity="0" result="BackgroundImageFix"/>
      <feBlend mode="normal" in="SourceGraphic" in2="BackgroundImageFix" result="shape"/>
      <feGaussianBlur stdDeviation="25" result="effect1_foregroundBlur_21_4106"/>
    </filter>
    <filter id="filter4_i_21_4106" x="104.663" y="51.7905" width="430.095" height="602.209" filterUnits="userSpaceOnUse" color-interpolation-filters="sRGB">
      <feFlood flood-opacity="0" result="BackgroundImageFix"/>
      <feBlend mode="normal" in="SourceGraphic" in2="BackgroundImageFix" result="shape"/>
      <feColorMatrix in="SourceAlpha" type="matrix" values="0 0 0 0 0 0 0 0 0 0 0 0 0 0 0 0 0 0 127 0" result="hardAlpha"/>
      <feOffset dy="4"/>
      <feGaussianBlur stdDeviation="2"/>
      <feComposite in2="hardAlpha" operator="arithmetic" k2="-1" k3="1"/>
      <feColorMatrix type="matrix" values="0 0 0 0 0 0 0 0 0 0 0 0 0 0 0 0 0 0 0.25 0"/>
      <feBlend mode="normal" in2="shape" result="effect1_innerShadow_21_4106"/>
    </filter>
    <clipPath id="clip0_21_4106">
      <rect width="35.8102" height="35.8102" fill="white" transform="translate(552.238 313.205)"/>
    </clipPath>
    <clipPath id="clip1_21_4106">
      <rect width="35.8102" height="35.8102" fill="white" transform="translate(67.9051 451.074)"/>
    </clipPath>
  </defs>
  <path d="M 433.604 236.06 C 433.604 133.607 345.256 50.551 236.274 50.551 C 127.292 50.551 38.945 133.607 38.945 236.06 C 38.945 338.512 127.292 421.567 236.274 421.567 C 345.256 421.567 433.604 338.512 433.604 236.06 Z" fill="#7B4AE2" fill-opacity="0.2" style=""/>
  <g filter="url(#filter0_d_21_4106)" transform="matrix(0.765335, 0, 0, 0.719957, 0.678979, 13.077934)" style="">
    <circle cx="570.143" cy="331.11" r="35.8102" fill="#090E16"/>
  </g>
  <g clip-path="url(#clip0_21_4106)" transform="matrix(0.765335, 0, 0, 0.719957, 0.678979, 13.077934)" style="">
    <path fill-rule="evenodd" clip-rule="evenodd" d="M585.251 313.205H555.036C553.491 313.205 552.238 314.458 552.238 316.003V346.218C552.238 347.763 553.491 349.015 555.036 349.015H585.251C586.796 349.015 588.049 347.763 588.049 346.218V316.003C588.049 314.458 586.796 313.205 585.251 313.205ZM573.293 345.112V341.248C573.994 341.836 574.755 342.277 575.577 342.57C576.399 342.864 577.229 343.011 578.066 343.011C578.558 343.011 578.987 342.967 579.353 342.878C579.72 342.79 580.026 342.667 580.272 342.51C580.517 342.353 580.701 342.168 580.821 341.955C580.942 341.741 581.003 341.51 581.003 341.26C581.003 340.922 580.906 340.621 580.713 340.355C580.519 340.089 580.256 339.844 579.921 339.618C579.587 339.393 579.19 339.176 578.731 338.967C578.272 338.757 577.776 338.544 577.245 338.327C575.891 337.763 574.882 337.075 574.218 336.262C573.553 335.449 573.221 334.467 573.221 333.316C573.221 332.415 573.402 331.64 573.765 330.992C574.127 330.344 574.621 329.811 575.245 329.392C575.869 328.974 576.592 328.666 577.414 328.469C578.236 328.271 579.106 328.173 580.024 328.173C580.926 328.173 581.726 328.227 582.423 328.336C583.119 328.444 583.762 328.611 584.35 328.837V332.447C584.06 332.246 583.744 332.068 583.401 331.916C583.059 331.763 582.706 331.636 582.344 331.535C581.981 331.434 581.621 331.36 581.262 331.312C580.904 331.264 580.564 331.239 580.241 331.239C579.798 331.239 579.396 331.282 579.033 331.366C578.671 331.451 578.364 331.569 578.115 331.722C577.865 331.875 577.672 332.058 577.535 332.272C577.398 332.485 577.329 332.724 577.329 332.99C577.329 333.28 577.406 333.539 577.559 333.769C577.712 333.998 577.929 334.216 578.211 334.421C578.493 334.626 578.836 334.827 579.238 335.024C579.641 335.222 580.096 335.425 580.604 335.634C581.297 335.924 581.919 336.232 582.471 336.558C583.023 336.884 583.496 337.252 583.891 337.663C584.285 338.073 584.587 338.542 584.797 339.069C585.006 339.596 585.111 340.21 585.111 340.91C585.111 341.876 584.928 342.687 584.561 343.343C584.195 343.999 583.697 344.53 583.069 344.937C582.441 345.343 581.71 345.635 580.876 345.812C580.042 345.989 579.162 346.078 578.236 346.078C577.285 346.078 576.381 345.997 575.523 345.836C574.665 345.675 573.922 345.434 573.293 345.112ZM571.822 331.634H566.854V345.798H562.918V331.634H557.974V328.452H571.822V331.634Z" fill="#7B4AE2" fill-opacity="0.5"/>
  </g>
  <g filter="url(#filter1_d_21_4106)" transform="matrix(0.765335, 0, 0, 0.719957, 0.678979, 13.077934)" style="">
    <circle cx="85.8102" cy="239.794" r="35.8102" fill="#090E16"/>
  </g>
  <path d="M 76.606 181.186 C 76.285 181.082 75.956 180.985 75.614 180.893 C 75.67 180.678 75.721 180.466 75.768 180.257 C 76.517 176.828 76.027 174.069 74.35 173.158 C 72.744 172.287 70.116 173.195 67.461 175.368 C 67.206 175.576 66.95 175.799 66.695 176.029 C 66.524 175.876 66.354 175.729 66.184 175.587 C 63.402 173.264 60.614 172.284 58.94 173.195 C 57.335 174.07 56.859 176.665 57.536 179.915 C 57.599 180.228 57.676 180.549 57.762 180.875 C 57.368 180.98 56.986 181.092 56.622 181.212 C 53.362 182.282 51.278 183.957 51.278 185.695 C 51.278 187.492 53.515 189.294 56.911 190.387 C 57.18 190.472 57.458 190.554 57.744 190.631 C 57.652 190.983 57.571 191.328 57.502 191.665 C 56.858 194.858 57.362 197.392 58.962 198.261 C 60.616 199.158 63.392 198.235 66.094 196.013 C 66.308 195.837 66.522 195.651 66.737 195.457 C 67.015 195.708 67.294 195.946 67.57 196.17 C 70.189 198.29 72.774 199.147 74.374 198.274 C 76.026 197.374 76.563 194.652 75.865 191.339 C 75.812 191.086 75.75 190.827 75.68 190.564 C 75.875 190.511 76.067 190.455 76.254 190.395 C 79.784 189.294 82.082 187.516 82.082 185.695 C 82.082 183.951 79.931 182.263 76.606 181.186 Z M 75.84 189.22 C 75.671 189.273 75.498 189.325 75.321 189.374 C 74.933 188.212 74.406 186.978 73.763 185.703 C 74.377 184.457 74.883 183.238 75.262 182.085 C 75.577 182.172 75.882 182.262 76.178 182.358 C 79.027 183.28 80.766 184.644 80.766 185.695 C 80.766 186.816 78.888 188.271 75.84 189.22 Z M 74.574 191.58 C 74.883 193.044 74.926 194.368 74.722 195.404 C 74.538 196.334 74.171 196.954 73.714 197.203 C 72.743 197.731 70.667 197.044 68.428 195.232 C 68.171 195.024 67.912 194.802 67.654 194.568 C 68.522 193.675 69.389 192.636 70.236 191.483 C 71.725 191.359 73.132 191.157 74.407 190.878 C 74.471 191.116 74.526 191.351 74.574 191.58 Z M 61.78 197.111 C 60.832 197.427 60.076 197.436 59.619 197.188 C 58.648 196.661 58.244 194.626 58.795 191.896 C 58.858 191.583 58.934 191.263 59.02 190.934 C 60.281 191.197 61.679 191.385 63.171 191.499 C 64.024 192.627 64.917 193.664 65.814 194.573 C 65.619 194.751 65.424 194.92 65.228 195.081 C 64.034 196.065 62.835 196.761 61.78 197.111 Z M 57.337 189.215 C 55.834 188.732 54.595 188.104 53.744 187.419 C 52.98 186.804 52.594 186.193 52.594 185.695 C 52.594 184.641 54.265 183.295 57.055 182.381 C 57.395 182.27 57.749 182.166 58.116 182.067 C 58.501 183.246 59.006 184.48 59.617 185.727 C 58.999 186.992 58.486 188.245 58.097 189.439 C 57.835 189.368 57.581 189.293 57.337 189.215 Z M 58.826 179.676 C 58.248 176.893 58.632 174.794 59.599 174.267 C 60.63 173.706 62.908 174.506 65.311 176.512 C 65.464 176.641 65.618 176.776 65.773 176.913 C 64.877 177.819 63.994 178.846 63.149 179.968 C 61.701 180.095 60.313 180.297 59.038 180.569 C 58.958 180.266 58.886 179.968 58.826 179.676 Z M 72.114 182.763 C 71.81 182.268 71.496 181.784 71.177 181.314 C 72.16 181.431 73.101 181.586 73.986 181.776 C 73.72 182.577 73.391 183.413 73 184.272 C 72.721 183.772 72.425 183.27 72.114 182.763 Z M 66.695 177.798 C 67.302 178.416 67.91 179.107 68.507 179.858 C 67.905 179.83 67.295 179.817 66.68 179.817 C 66.072 179.817 65.466 179.83 64.867 179.855 C 65.465 179.114 66.079 178.425 66.695 177.798 Z M 61.241 182.772 C 60.938 183.268 60.648 183.77 60.373 184.269 C 59.989 183.415 59.661 182.574 59.394 181.763 C 60.273 181.578 61.209 181.427 62.186 181.313 C 61.863 181.786 61.548 182.273 61.241 182.772 Z M 62.214 190.169 C 61.205 190.063 60.255 189.921 59.375 189.739 C 59.647 188.914 59.983 188.055 60.374 187.181 C 60.649 187.683 60.941 188.184 61.247 188.682 C 61.56 189.187 61.883 189.685 62.214 190.169 Z M 66.731 193.682 C 66.107 193.049 65.485 192.348 64.879 191.595 C 65.468 191.617 66.07 191.629 66.68 191.629 C 67.308 191.629 67.93 191.616 68.54 191.589 C 67.939 192.356 67.335 193.057 66.731 193.682 Z M 73.013 187.137 C 73.424 188.019 73.771 188.874 74.047 189.686 C 73.153 189.878 72.189 190.032 71.174 190.147 C 71.493 189.67 71.808 189.178 72.119 188.672 C 72.433 188.161 72.731 187.648 73.013 187.137 Z M 70.979 188.054 C 70.497 188.839 70.003 189.589 69.5 190.297 C 68.588 190.359 67.643 190.391 66.68 190.391 C 65.722 190.391 64.79 190.363 63.891 190.307 C 63.37 189.591 62.863 188.838 62.385 188.061 C 61.909 187.286 61.47 186.503 61.072 185.727 C 61.47 184.947 61.907 184.165 62.381 183.389 C 62.857 182.614 63.359 181.866 63.876 181.152 C 64.792 181.088 65.731 181.054 66.68 181.054 C 67.635 181.054 68.575 181.088 69.49 181.154 C 70 181.862 70.497 182.608 70.975 183.384 C 71.457 184.168 71.901 184.946 72.302 185.709 C 71.903 186.485 71.46 187.27 70.979 188.054 Z M 73.693 174.229 C 74.726 174.79 75.126 177.046 74.478 180.007 C 74.437 180.195 74.39 180.388 74.34 180.582 C 73.062 180.305 71.673 180.098 70.222 179.97 C 69.374 178.836 68.497 177.805 67.617 176.913 C 67.854 176.699 68.091 176.494 68.325 176.302 C 70.601 174.441 72.725 173.706 73.693 174.229 Z M 66.68 183.108 C 68.2 183.108 69.431 184.267 69.431 185.695 C 69.431 187.125 68.2 188.284 66.68 188.284 C 65.162 188.284 63.929 187.125 63.929 185.695 C 63.929 184.267 65.162 183.108 66.68 183.108 Z" fill="#7B4AE2" fill-opacity="0.5" style=""/>
  <g filter="url(#filter2_d_21_4106)" transform="matrix(0.765335, 0, 0, 0.719957, 0.678979, 13.077934)" style="">
    <circle cx="85.8102" cy="468.98" r="35.8102" fill="#090E16"/>
  </g>
  <g clip-path="url(#clip1_21_4106)" transform="matrix(0.765335, 0, 0, 0.719957, 0.678979, 13.077934)" style="">
    <path fill-rule="evenodd" clip-rule="evenodd" d="M79.8885 451.074C76.5939 451.074 73.9201 453.748 73.9201 457.043C73.9201 460.337 76.5939 463.011 79.8885 463.011C76.5939 463.011 73.9201 465.685 73.9201 468.98C73.9201 472.274 76.5939 474.948 79.8885 474.948C76.5939 474.948 73.9201 477.622 73.9201 480.916C73.9201 484.211 76.5939 486.885 79.8885 486.885C83.183 486.885 85.8568 484.211 85.8568 480.916L85.8568 468.98C85.8568 472.274 88.5307 474.948 91.8252 474.948C95.1198 474.948 97.7936 472.274 97.7936 468.98C97.7936 465.685 95.1198 463.011 91.8252 463.011C95.1198 463.011 97.7936 460.337 97.7936 457.043C97.7936 453.748 95.1198 451.074 91.8252 451.074H79.8885ZM91.8252 463.011H85.8568L85.8568 468.98C85.8568 465.685 88.5307 463.011 91.8252 463.011Z" fill="#7B4AE2" fill-opacity="0.5"/>
  </g>
  <g filter="url(#filter3_f_21_4106)" transform="matrix(0.765335, 0, 0, 0.719957, 0.678979, 13.077934)" style="">
    <circle cx="309.624" cy="305.148" r="255.148" fill="#7B4AE2" fill-opacity="0.2"/>
  </g>
  <g filter="url(#filter4_i_21_4106)" transform="matrix(0.765335, 0, 0, 0.719957, 0.678979, 13.077934)" style="">
    <path fill-rule="evenodd" clip-rule="evenodd" d="M262.636 404.465C299.391 424.056 340.608 421.88 372.901 404.463V447.383L373.266 447.373V472.573H262.636V404.465Z" fill="#BB7D52"/>
    <path fill-rule="evenodd" clip-rule="evenodd" d="M262.635 440.226C299.39 459.819 340.607 457.642 372.901 440.226V467.595L397.734 466.977L398.042 466.988C398.042 532.959 240.326 542.834 240.326 466.889L240.942 466.861L262.635 466.972V440.226Z" fill="#D08B5B"/>
    <path fill-rule="evenodd" clip-rule="evenodd" d="M198.067 169.098C285.781 113.249 397.996 133.109 435.909 169.937C446.87 196.314 447.645 221.755 444.42 249.065C451.825 243.751 460.631 244.967 467.569 249.916C470.38 272.577 477.909 317.405 444.169 319.35C432.553 463.956 219.72 481.955 190.95 319.823C157.51 318.669 166.527 273.364 168.616 251.608C176.639 245.504 185.801 248.576 191.487 251.307L198.067 169.098Z" fill="#D08B5B"/>
    <path fill-rule="evenodd" clip-rule="evenodd" d="M185.039 230.339C185.499 231.604 184.002 232.87 179.511 235.172C170.215 239.815 169.4 240.78 169.377 248.053V248.405C169.377 258.185 170.874 260.715 177.322 261.637C183.887 262.558 188.034 264.053 189.186 265.894C189.645 266.7 190.107 270.382 190.107 274.179C190.107 282.349 192.64 293.856 195.75 299.839C204.502 316.87 227.304 325.5 254.943 322.278C268.533 320.551 276.479 317.905 285.116 312.151C298.015 303.522 304.003 292.475 304.924 275.1C305.616 264.513 305.616 264.513 309.071 263.362C313.562 261.752 324.733 261.752 329.34 263.362C332.909 264.628 332.909 264.628 332.909 272.799C332.909 282.234 335.328 293.511 338.552 299.84C347.305 316.87 370.107 325.5 397.631 322.278C411.336 320.552 419.282 317.905 427.92 312.153C440.818 303.523 446.807 292.131 447.958 274.295C448.764 262.558 448.189 263.133 460.857 261.522C467.305 260.717 468.803 258.185 468.803 248.289C468.803 240.464 467.536 238.97 456.826 234.367L450.376 231.604L440.357 228.499L432.987 226.888C428.956 226.082 423.774 225.391 421.585 225.276C419.282 225.276 413.525 223.204 407.767 220.329C398.207 215.61 397.747 215.495 386.461 215.495C373.563 215.495 364.464 218.142 357.093 223.896C354.906 225.621 350.299 227.807 347.074 228.613C343.734 229.419 337.516 231.605 333.255 233.446C322.084 238.164 316.326 237.934 302.046 232.18C295.827 229.65 289.953 227.577 289.148 227.577C288.34 227.577 285.692 225.967 283.274 224.011C275.673 218.027 267.151 215.495 254.022 215.495C242.851 215.495 242.161 215.726 232.257 220.444C225.577 223.666 220.394 225.276 217.285 225.276C214.75 225.391 209.223 226.082 205.077 227.003L185.039 230.339ZM277.17 245.183C290.988 249.67 295.249 255.768 295.365 271.187C295.48 279.358 295.02 282.005 292.832 286.491C285.232 302.026 263.58 310.772 237.898 308.815C218.206 307.204 208.071 301.681 202.659 289.484C199.204 281.544 198.743 262.558 201.967 256.689C204.962 251.165 210.721 247.369 220.163 244.837C227.534 242.881 231.565 242.651 249.991 242.881C265.883 243.226 272.794 243.802 277.17 245.183ZM419.972 245.183C433.793 249.67 438.053 255.768 438.169 271.187C438.284 279.358 437.823 282.005 435.635 286.491C428.034 302.026 406.383 310.772 380.701 308.815C361.009 307.204 350.874 301.681 345.461 289.484C342.006 281.544 341.546 262.558 344.77 256.689C347.765 251.165 353.523 247.369 362.966 244.837C370.337 242.881 374.367 242.651 392.793 242.881C408.686 243.226 415.596 243.802 419.972 245.183Z" fill="#A66F49"/>
    <path fill-rule="evenodd" clip-rule="evenodd" d="M240.087 254.771C233.983 257.647 226.957 264.897 226.957 268.349C226.957 270.995 228.8 270.995 232.37 268.119C241.698 260.754 261.507 260.754 271.641 268.003C273.599 269.269 275.672 270.419 276.363 270.419C278.781 270.419 277.63 266.277 273.945 261.904C269.108 255.921 260.471 252.009 252.293 252.009C248.032 252.009 244.002 252.929 240.087 254.77V254.771Z" fill="#533824"/>
    <path fill-rule="evenodd" clip-rule="evenodd" d="M373.677 254.771C367.573 257.647 360.548 264.897 360.548 268.349C360.548 270.995 362.391 270.995 365.961 268.119C375.289 260.754 395.097 260.754 405.232 268.003C407.189 269.269 409.262 270.419 409.954 270.419C412.372 270.419 411.22 266.277 407.535 261.904C402.698 255.921 394.061 252.009 385.884 252.009C381.623 252.009 377.593 252.929 373.677 254.77L373.677 254.771Z" fill="#533824"/>
    <path fill-rule="evenodd" clip-rule="evenodd" d="M292.256 309.773C293.523 314.721 297.208 318.634 303.657 321.741C308.84 324.272 311.488 324.848 319.089 324.848C326.69 324.848 329.339 324.272 334.521 321.741C340.97 318.634 344.655 314.722 345.922 309.773L346.498 307.242H319.089H291.68L292.256 309.773Z" fill="#AF754C"/>
    <path fill-rule="evenodd" clip-rule="evenodd" d="M185.039 226.003C185.499 227.269 184.002 228.535 179.511 230.836C170.215 235.479 169.4 236.446 169.377 243.718V244.07C169.377 253.85 170.874 256.381 177.322 257.302C183.887 258.222 188.034 259.718 189.186 261.559C189.645 262.365 190.107 266.047 190.107 269.844C190.107 278.014 192.64 289.522 195.75 295.504C204.502 312.535 227.304 321.164 254.943 317.943C268.533 316.216 276.479 313.57 285.116 307.817C298.015 299.187 304.003 288.141 304.924 270.765C305.616 260.178 305.616 260.178 309.071 259.028C313.562 257.418 324.733 257.418 329.34 259.028C332.909 260.293 332.909 260.293 332.909 268.464C332.909 277.899 335.328 289.176 338.552 295.506C347.305 312.535 370.107 321.164 397.631 317.943C411.336 316.217 419.282 313.57 427.92 307.818C440.818 299.188 446.807 287.796 447.958 269.96C448.764 258.222 448.189 258.799 460.857 257.187C467.305 256.382 468.803 253.85 468.803 243.954C468.803 236.13 467.536 234.635 456.826 230.032L450.376 227.269L440.357 224.164L432.987 222.552C428.956 221.747 423.774 221.056 421.585 220.941C419.282 220.941 413.525 218.87 407.767 215.994C398.207 211.276 397.747 211.16 386.461 211.16C373.563 211.16 364.464 213.807 357.093 219.561C354.906 221.286 350.299 223.473 347.074 224.278C343.734 225.084 337.516 227.27 333.255 229.111C322.084 233.829 316.326 233.599 302.046 227.845C295.827 225.315 289.953 223.242 289.148 223.242C288.34 223.242 285.692 221.632 283.274 219.676C275.673 213.692 267.151 211.16 254.022 211.16C242.851 211.16 242.161 211.391 232.257 216.109C225.577 219.331 220.394 220.941 217.285 220.941C214.75 221.056 209.223 221.747 205.077 222.667L185.039 226.003ZM277.17 240.848C290.988 245.336 295.249 251.434 295.365 266.853C295.48 275.023 295.02 277.67 292.832 282.156C285.232 297.691 263.58 306.437 237.898 304.479C218.206 302.869 208.071 297.346 202.659 285.149C199.204 277.209 198.743 258.222 201.967 252.354C204.962 246.83 210.721 243.034 220.163 240.502C227.534 238.546 231.565 238.316 249.991 238.546C265.883 238.89 272.794 239.467 277.17 240.848ZM419.972 240.848C433.793 245.336 438.053 251.434 438.169 266.853C438.284 275.023 437.823 277.67 435.635 282.156C428.034 297.691 406.383 306.437 380.701 304.479C361.009 302.869 350.874 297.346 345.461 285.149C342.006 277.209 341.546 258.222 344.77 252.354C347.765 246.83 353.523 243.034 362.966 240.502C370.337 238.546 374.367 238.316 392.793 238.546C408.686 238.89 415.596 239.467 419.972 240.848Z" fill="#090E16"/>
    <path fill-rule="evenodd" clip-rule="evenodd" d="M286.958 356.03C288.455 365.581 295.711 375.362 304.694 379.965C311.258 383.417 323.35 384.107 330.26 381.461C340.625 377.434 349.608 366.617 351.22 356.03H286.958Z" fill="#3E291B"/>
    <path d="M359.721 578.002L367.116 571.994C368.83 570.602 371.349 570.861 372.742 572.574C374.136 574.286 373.876 576.802 372.162 578.195L368.583 581.102L394.568 602.978C396.281 604.37 396.541 606.887 395.148 608.599C394.357 609.57 393.205 610.074 392.043 610.074C391.156 610.074 390.263 609.781 389.522 609.179L359.721 584.202C358.787 583.443 358.245 582.305 358.245 581.102C358.245 579.899 358.787 578.76 359.721 578.002Z" fill="#7B4AE2"/>
    <path d="M392.56 541.293C394.683 541.31 396.391 543.043 396.374 545.165L396.044 606.263C396.027 608.384 394.291 610.091 392.168 610.074C391.63 610.07 391.12 609.955 390.656 609.752C389.291 609.154 388.341 607.786 388.354 606.201L388.685 545.104C388.702 542.982 390.437 541.276 392.56 541.293Z" fill="#7B4AE2"/>
    <path d="M409.437 583.321L412.169 581.102L402.441 573.198C400.727 571.806 400.468 569.29 401.861 567.577C403.254 565.865 405.773 565.606 407.487 566.998L421.03 578.002C421.965 578.76 422.507 579.899 422.507 581.102C422.507 582.305 421.965 583.443 421.03 584.202L414.483 589.522C413.742 590.123 412.849 590.417 411.963 590.417C410.8 590.417 409.648 589.913 408.857 588.942C407.464 587.23 407.724 584.713 409.437 583.321Z" fill="#C83267"/>
    <path fill-rule="evenodd" clip-rule="evenodd" d="M239.624 466.93C205.652 470.236 174.789 482.889 149.107 503.977C127.008 522.046 120.843 536.407 104.663 556.86C137.629 591.033 181.958 619.988 230.298 635.98C262.543 646.58 284.54 650 319.088 650C353.639 650 375.634 646.58 407.881 635.98C456.649 620.396 497.728 594.859 534.759 558.205C509.396 525.495 498.957 504.057 458.091 483.914C440.931 475.365 420.778 469.21 405.346 467.614L398.078 466.959L397.733 466.952L396.939 472.402C393.485 498.392 360.895 517.542 320.241 517.542C279.589 517.542 247.573 498.619 243.426 472.288C242.621 467.045 242.274 466.588 239.626 466.93H239.624Z" fill="#090E16"/>
  </g>
  <path fill="#73491c" stroke="#000" stroke-miterlimit="10" stroke-width="5" d="M 359.598 175.582 C 322.852 183.549 324.584 136.871 324.584 136.871 C 296.194 144.846 286.334 129.816 283.542 123.491 C 283.162 122.635 282.845 121.755 282.596 120.857 C 261.947 149.322 201.751 166.43 146.325 180.531 C 100.667 192.116 90.246 153.724 88.003 139.861 C 87.521 136.898 87.407 135.057 87.407 135.057 C 87.407 135.057 88.439 146.105 110.119 150.242 C 129.377 153.888 143.136 101.196 150.687 92.238 C 160.555 80.626 173.43 71.732 188.011 66.45 C 192.202 64.925 196.512 63.72 200.899 62.849 C 202.243 62.576 203.598 62.34 204.968 62.128 C 215.686 60.511 226.624 60.853 237.209 63.142 C 243.124 64.408 294.86 92.309 290.204 93.923 C 308.705 87.541 322.237 88.764 331.9 94.033 C 332.382 94.287 332.845 94.55 333.319 94.843 C 336.502 96.795 339.333 99.232 341.702 102.062 C 350.513 112.435 353.504 127.374 353.125 139.132 C 352.349 163.505 394.868 152.365 394.868 152.365 C 394.868 152.365 396.334 167.604 359.598 175.582 Z" class="canChange" style="opacity: 1;">
    <animate attributeName="stroke" values="rgb(0% 0% 0%);rgba(0, 0, 0, 0)" begin="0s" dur="0.01s" fill="freeze" keyTimes="0; 1"/>
  </path>
</svg>