<svg xmlns='http://www.w3.org/2000/svg' width='400' height='400'>
      <defs><style>.cls-multipy{mix-blend-mode: multiply;}.cls-softlight{mix-blend-mode: soft-light;}.cls-overlay{mix-blend-mode: overlay;}.cls-colorburn{mix-blend-mode: color-burn;}.cls-screen{mix-blend-mode: screen;}.cls-lighten{ mix-blend-mode: darken;}</style>
      </defs><path fill="#7a3134" d="M282.29,151.31s-13.07,15.74-10.45,31.48c3.76,22.65-30.7,52.46-66,42.62s2.61-76.07,2.61-76.07l73.81,2" class="canChange cls-overlay" style="fill:null"></path><path fill="#7a3134" d="M117.46,151.31s13.07,15.74,10.45,31.48c-3.76,22.65,30.7,52.46,66,42.62s-2.61-76.07-2.61-76.07l-73.81,2" class="canChange cls-overlay" style="fill:null"></path><path fill="#a1444b" d="M207.1,201.33c16.24.22,32.43-2.7,47-10.28,7.72-4,13-9.52,17.59-15.71,1.48-12.91,10.57-24,10.57-24l-73.81-2S192.42,177.71,191,200.23a154.8,154.8,0,0,0,16.14,1.1" class="canChange cls-overlay" style="fill:null"></path><path fill="#a1444b" d="M128.21,180.34c24.07,13,52.17,20.64,78.89,21,.58,0,1.16,0,1.74,0-1-22.69-17.57-52-17.57-52l-73.81,2s11.58,14.09,10.75,29" class="canChange cls-overlay" style="fill:null"></path><path fill="#ffa673" stroke="#000" stroke-miterlimit="10" stroke-width="5" d="M303.13,380v19.39H96.87V380c0-38.61,19.76-71.1,45.91-78.94a42.23,42.23,0,0,1,8.94-1.67h0c1.08-.09,2.16-.14,3.26-.14h90c1.1,0,2.18,0,3.26.14h0a42.32,42.32,0,0,1,12.16,2.78C285,311.65,303.13,343,303.13,380Z" class="canChange" style="fill:null"></path><path fill="#ffa673" stroke="#000" stroke-miterlimit="10" stroke-width="5" d="M311.59,187.33s53.56-48.67,44.87,6.95S312.69,238,312.69,238" class="canChange" style="fill:null"></path><path fill="none" stroke="#000" stroke-miterlimit="10" stroke-width="2" d="M345.49,178.08c-7.33,1.35-19.24,13.09-21.6,22a7.31,7.31,0,0,1,10.47-.63c3.17,2.78,4.94,8.41,4.24,13.5s-3.83,9.3-7.49,10.1"></path><path fill="#fff" d="M315.07,196.36c5.16-10.16,12.78-17.79,21.34-21.37,3-1.27,6.42-2,9.34-.19,4.05,2.51,6,9.35,5.7,15.49s-2.37,11.76-4.4,17.19c4.25-5.19,7.1-12.56,7.89-20.42.4-3.93.23-8.26-1.49-11.48A9.14,9.14,0,0,0,348,171a12.92,12.92,0,0,0-6.39,0c-10.12,2.14-19.41,10.61-24.85,22.65" class="cls-overlay"></path><path fill="#ffa673" stroke="#000" stroke-miterlimit="10" stroke-width="5" d="M88.41,187.33s-53.56-48.67-44.87,6.95S87.31,238,87.31,238" class="canChange" style="fill:null"></path><path fill="none" stroke="#000" stroke-miterlimit="10" stroke-width="2" d="M54.51,178.08c7.33,1.35,19.24,13.09,21.6,22a7.31,7.31,0,0,0-10.47-.63c-3.17,2.78-4.94,8.41-4.24,13.5s3.83,9.3,7.49,10.1"></path><path fill="#fff" d="M84.93,196.36C79.77,186.2,72.15,178.57,63.59,175c-3-1.27-6.42-2-9.34-.19-4,2.51-6,9.35-5.7,15.49s2.37,11.76,4.4,17.19c-4.25-5.19-7.1-12.56-7.89-20.42-.4-3.93-.23-8.26,1.49-11.48A9.14,9.14,0,0,1,52,171a12.92,12.92,0,0,1,6.39,0c10.12,2.14,19.41,10.61,24.85,22.65" class="cls-overlay"></path><circle fill="#ffa673" stroke="#000" stroke-miterlimit="10" stroke-width="5" cx="199.03" cy="179.39" r="129.04" class="canChange" style="fill:null"></circle><path fill="#fff" d="M79.76,187a128.71,128.71,0,0,0,45.12,98A129,129,0,1,1,283,81.38,129.06,129.06,0,0,0,79.76,187Z" class="cls-overlay"></path><path opacity="0.29" d="M328.31,179.39a129.06,129.06,0,0,1-252,39.18A129.08,129.08,0,0,0,312.47,117.39,128.45,128.45,0,0,1,328.31,179.39Z"></path><path fill="#73491c" stroke="#000" stroke-miterlimit="10" stroke-width="5" d="M324.08,150.36c-38.83,8.74-37-42.47-37-42.47-30,8.75-40.42-7.74-43.37-14.68a21.32,21.32,0,0,1-1-2.89c-21.82,31.23-85.43,50-144,65.47-48.25,12.71-59.26-29.41-61.63-44.62-.51-3.25-.63-5.27-.63-5.27s1.09,12.12,24,16.66c20.35,4,34.89-53.81,42.87-63.64a93.5,93.5,0,0,1,39.44-28.29,89.78,89.78,0,0,1,13.62-3.95c1.42-.3,2.85-.56,4.3-.79A91.11,91.11,0,0,1,194.75,27c6.25,1.39,60.92,32,56,33.77,19.55-7,33.85-5.66,44.06.12.51.28,1,.57,1.5.89h0a36.73,36.73,0,0,1,8.86,7.92c9.31,11.38,12.47,27.77,12.07,40.67-.82,26.74,44.11,14.52,44.11,14.52S362.9,141.61,324.08,150.36Z" class="canChange" style="fill:null"></path><g opacity="0.29"><path d="M315.65,150.36a22.41,22.41,0,0,1-16.79-6.84c-11.48-11.9-10.77-35.36-10.76-35.59l0-1.39-1.33.39a56.3,56.3,0,0,1-15.57,2.46c-17.38,0-24.27-11.24-26.5-16.34l1.64-16.34c7.05,3.74,39.47,20.43,56.55,20.43,5.67,0,9.2-1.86,10.5-5.51a9.56,9.56,0,0,0,.48-1.93,71.31,71.31,0,0,1,2.37,20.68c-.15,5,1.25,9.11,4.18,12.12,4,4.13,10.75,6.22,20.08,6.22a89.76,89.76,0,0,0,19.75-2.48c-.64,3.88-5.2,16.1-36.44,23.14A37.65,37.65,0,0,1,315.65,150.36Z"></path><path d="M247.24,78.28c9.14,4.78,39.3,19.86,55.7,19.86,6.45,0,9.45-2.39,10.83-4.83a70.89,70.89,0,0,1,1.52,17c-.16,5.31,1.34,9.63,4.46,12.85,4.19,4.33,11.19,6.52,20.8,6.52A89.8,89.8,0,0,0,359,127.57a16.22,16.22,0,0,1-3.2,5.5c-3.89,4.57-12.63,10.94-32.14,15.34a36.85,36.85,0,0,1-8,1,21.47,21.47,0,0,1-16.07-6.53c-11.17-11.57-10.49-34.64-10.48-34.87l.09-2.76-2.65.77a55.1,55.1,0,0,1-15.29,2.42c-16,0-22.8-9.5-25.48-15.5l1.47-14.61m51.54-14c9.09,9.37,16.33,19.7,13.72,27-1.23,3.46-4.74,4.84-9.56,4.84-18.79,0-57.4-21-57.4-21l-1.81,18.09c2.35,5.55,9.45,17.18,27.52,17.18a56.94,56.94,0,0,0,15.85-2.5s-1.57,43.47,28.55,43.47a38.85,38.85,0,0,0,8.43-1c38.82-8.75,37.32-25.43,37.32-25.43a90.43,90.43,0,0,1-20.85,2.79c-11.62,0-23.69-3.34-23.26-17.31.4-12.9-2.76-29.29-12.07-40.67l-6.44-5.47Z"></path></g><path fill="#fff" d="M164.15,24.42c-.22.09-1.48.58-3.49,1.47-11.39,5-44.31,28.53-58.13,54.86C86,112.22,71.88,139.17,54.91,127.12a101.74,101.74,0,0,1-17.82-16c-.51-3.25-.63-5.27-.63-5.27s1.09,12.12,24,16.66c20.35,4,34.89-53.81,42.87-63.64a93.5,93.5,0,0,1,39.44-28.29l13.62-3.95Z" class="cls-overlay"></path><path d="M171.7,146c-7.29-7.3-17-12.7-26.68-16.13-21-7.48-43-3.19-61.36,8.83-5.36,3.51-.36,12.18,5,8.64,16.67-10.92,35.76-14.56,54.66-7.46a61,61,0,0,1,21.26,13.19c4.55,4.56,11.62-2.51,7.07-7.07Z" class="canChange" style="fill:null"></path><path d="M235.37,156.34a61,61,0,0,1,21.26-13.19c18.9-7.11,38-3.45,54.66,7.46,5.4,3.53,10.42-5.12,5-8.64-18.34-12-40.4-16.33-61.36-8.83-9.63,3.44-19.38,8.82-26.68,16.13-4.55,4.56,2.52,11.63,7.07,7.07Z" class="canChange" style="fill:null"></path><path d="M85.38,204.14a67.83,67.83,0,0,1,22.18-22.08c7.2-4.25,15.53-6.34,23.76-4.17,12.89,3.39,22.05,14.84,29,25.5,1.74,2.69,6.07.18,4.32-2.53-7.27-11.18-16.5-22.46-29.49-27-9-3.16-18.51-1.9-26.93,2.22-11,5.39-20.66,15.21-27.13,25.58-1.7,2.74,2.62,5.25,4.32,2.52Z" class="canChange" style="fill:null"></path><path d="M240.38,204.14a67.83,67.83,0,0,1,22.18-22.08c7.2-4.25,15.53-6.34,23.76-4.17,12.89,3.39,22.05,14.84,29,25.5,1.74,2.69,6.07.18,4.32-2.53-7.27-11.18-16.5-22.46-29.49-27-9-3.16-18.51-1.9-26.93,2.22-11,5.39-20.66,15.21-27.13,25.58-1.7,2.74,2.62,5.25,4.32,2.52Z" class="canChange" style="fill:null"></path><path d="M165.81,255c5.64,1.24,11.12,2.63,16.69,3.49a111.63,111.63,0,0,0,16.68,1.34,88.39,88.39,0,0,0,16.59-1.6c.69-.13,1.38-.24,2.06-.4s1.36-.34,2-.48c1.38-.28,2.73-.71,4.1-1,2.73-.76,5.45-1.64,8.21-2.47a62,62,0,0,1-7.52,4.31,58.05,58.05,0,0,1-8.15,3.12,59,59,0,0,1-17.33,2.57,67.39,67.39,0,0,1-17.34-2.3A69.9,69.9,0,0,1,165.81,255Z"></path><path fill="#ffddc9" stroke="#000" stroke-miterlimit="10" stroke-width="5" d="M248.28,300h0c-1.08-.09-2.16-.13-3.26-.13h-6.7a21.53,21.53,0,0,1,4.36,12.75c0,.22,0,.44,0,.67-.52,15.61-19.24,28.16-42.28,28.16-23.35,0-42.28-12.91-42.28-28.83a21.53,21.53,0,0,1,4.36-12.75H155c-1.1,0-2.18,0-3.26.13h0c-26.08,2-47.72,27.68-53.39,61.41h30.39l0,15.71v.73l.05,20.16H271.88v-36.6h29.79C296,327.65,274.36,302,248.28,300Z" class="canChange" style="fill:null"></path><path fill="#8343a1" stroke="#000" stroke-miterlimit="10" stroke-width="5" d="M210.94,329.46v70.36l95.53.16s10.12-90.05-53.91-102C252.56,298,224,336,210.94,329.46Z"></path><path fill="#6affe9" stroke="#000" stroke-miterlimit="10" stroke-width="5" d="M251.29,294.73c-10.71,8-26.5,19.06-40.35,26v16s34.67,1.48,52.8-36.55l.07-5.71A108.26,108.26,0,0,1,251.29,294.73Z"></path><path fill="#8343a1" stroke="#000" stroke-miterlimit="10" stroke-width="5" d="M189.06,329.46v70.36l-83.93.14-11.6,0s-8.94-79.49,43.09-99a62.67,62.67,0,0,1,6.87-2.12c1.28-.32,2.6-.61,3.95-.86C147.44,298,176.05,336,189.06,329.46Z"></path><path fill="#6affe9" stroke="#000" stroke-miterlimit="10" stroke-width="5" d="M150.12,295.78c-4.65,0-9.29,0-13.92-.19l.05,4.63c.12.26.24.51.37.76a75,75,0,0,0,4.41,7.83c18.82,29.21,48,28,48,28v-16C175.81,314.09,160.78,303.67,150.12,295.78Z"></path><polygon fill="#fff" points="134 349.06 134 398.85 128.1 398.06 128.29 349.06 134 349.06" class="cls-overlay"></polygon><line fill="none" stroke="#000" stroke-miterlimit="10" stroke-width="5" x1="271.75" y1="347.84" x2="271.66" y2="399.41"></line><line fill="none" stroke="#000" stroke-miterlimit="10" stroke-width="5" x1="129.15" y1="348.43" x2="129.06" y2="399.41"></line><g opacity="0.14"><path d="M145.14,295.79c-3,0-6-.06-8.94-.2l.05,4.63c.12.26.24.51.37.76-52,19.51-43.09,99-43.09,99l11.6,0c-.73-7.6-1-19.87.28-39.31,2.58-38,29.61-49.71,35.62-51.84.76-.27,1.18-.39,1.18-.39-1.35-2.49-.36-6.13,1.28-9.56C144,297.8,144.56,296.77,145.14,295.79Z"></path></g><g opacity="0.14"><path d="M261.63,301c.13-.25.25-.5.37-.76l.06-5.58c-3.27.21-6.57.15-9.6.09a40.58,40.58,0,0,1,2.3,4.13c1.64,3.43,2.63,7.07,1.28,9.56,0,0,.42.12,1.18.39,6,2.13,33,13.8,35.62,51.84,1.32,19.44,1,31.71.28,39.31l11.6,0S313.66,320.51,261.63,301Z"></path></g><path opacity="0.29" d="M260.44,302.19c-12.93,8.17-34.09,13.49-58,13.49-24.95,0-46.92-5.81-59.66-14.6a42.23,42.23,0,0,1,8.94-1.67h0c1.08-.09,2.16-.14,3.26-.14h90c1.1,0,2.18.05,3.26.14h0A42.32,42.32,0,0,1,260.44,302.19Z"></path></svg>