<?xml version="1.0" encoding="utf-8"?>
<svg viewBox="0 0 500 500" xmlns="http://www.w3.org/2000/svg">
  <defs>
    <filter id="filter3_f_21_4106" x="4.47626" y="0" width="610.296" height="610.296" filterUnits="userSpaceOnUse" color-interpolation-filters="sRGB">
      <feFlood flood-opacity="0" result="BackgroundImageFix"/>
      <feBlend mode="normal" in="SourceGraphic" in2="BackgroundImageFix" result="shape"/>
      <feGaussianBlur stdDeviation="25" result="effect1_foregroundBlur_21_4106"/>
    </filter>
    <filter id="filter4_i_21_4106" x="104.663" y="51.7905" width="430.095" height="602.209" filterUnits="userSpaceOnUse" color-interpolation-filters="sRGB">
      <feFlood flood-opacity="0" result="BackgroundImageFix"/>
      <feBlend mode="normal" in="SourceGraphic" in2="BackgroundImageFix" result="shape"/>
      <feColorMatrix in="SourceAlpha" type="matrix" values="0 0 0 0 0 0 0 0 0 0 0 0 0 0 0 0 0 0 127 0" result="hardAlpha"/>
      <feOffset dy="4"/>
      <feGaussianBlur stdDeviation="2"/>
      <feComposite in2="hardAlpha" operator="arithmetic" k2="-1" k3="1"/>
      <feColorMatrix type="matrix" values="0 0 0 0 0 0 0 0 0 0 0 0 0 0 0 0 0 0 0.25 0"/>
      <feBlend mode="normal" in2="shape" result="effect1_innerShadow_21_4106"/>
    </filter>
    <clipPath id="clip1_21_4106">
      <rect width="35.8102" height="35.8102" fill="white" transform="translate(67.9051 451.074)"/>
    </clipPath>
  </defs>
  <path d="M 460.984 228.324 C 460.984 111.58 359.488 16.94 234.287 16.94 C 109.085 16.94 7.589 111.58 7.589 228.324 C 7.589 345.067 109.085 439.707 234.287 439.707 C 359.488 439.707 460.984 345.067 460.984 228.324 Z" fill="#7B4AE2" fill-opacity="0.2" style=""/>
  <path d="M 50.855 165.797 C 50.487 165.678 50.108 165.567 49.716 165.462 C 49.78 165.217 49.838 164.975 49.891 164.737 C 50.753 160.831 50.19 157.686 48.264 156.649 C 46.419 155.656 43.399 156.691 40.349 159.167 C 40.056 159.405 39.762 159.658 39.469 159.921 C 39.272 159.746 39.077 159.578 38.882 159.416 C 35.687 156.769 32.483 155.653 30.56 156.691 C 28.716 157.688 28.169 160.646 28.946 164.347 C 29.02 164.705 29.108 165.071 29.207 165.442 C 28.753 165.561 28.316 165.689 27.897 165.826 C 24.151 167.045 21.758 168.954 21.758 170.935 C 21.758 172.983 24.327 175.035 28.229 176.28 C 28.537 176.378 28.857 176.471 29.186 176.558 C 29.08 176.96 28.986 177.354 28.908 177.737 C 28.168 181.374 28.747 184.263 30.586 185.252 C 32.486 186.275 35.674 185.224 38.779 182.692 C 39.024 182.491 39.271 182.279 39.518 182.057 C 39.837 182.343 40.156 182.615 40.474 182.87 C 43.483 185.286 46.452 186.262 48.29 185.268 C 50.189 184.243 50.805 181.14 50.004 177.366 C 49.943 177.077 49.872 176.783 49.791 176.483 C 50.016 176.421 50.236 176.358 50.451 176.291 C 54.507 175.036 57.147 173.009 57.147 170.935 C 57.147 168.947 54.675 167.024 50.855 165.797 Z M 49.975 174.952 C 49.781 175.012 49.582 175.07 49.38 175.127 C 48.933 173.802 48.328 172.396 47.589 170.943 C 48.295 169.524 48.876 168.135 49.311 166.821 C 49.672 166.919 50.024 167.022 50.363 167.131 C 53.636 168.182 55.635 169.738 55.635 170.935 C 55.635 172.212 53.477 173.87 49.975 174.952 Z M 48.52 177.64 C 48.876 179.308 48.925 180.818 48.691 181.998 C 48.48 183.057 48.057 183.764 47.533 184.048 C 46.417 184.65 44.032 183.866 41.461 181.802 C 41.165 181.565 40.868 181.312 40.571 181.045 C 41.568 180.027 42.564 178.845 43.537 177.53 C 45.247 177.389 46.864 177.158 48.329 176.84 C 48.402 177.112 48.466 177.379 48.52 177.64 Z M 33.823 183.943 C 32.734 184.302 31.865 184.313 31.341 184.03 C 30.223 183.43 29.76 181.111 30.394 178 C 30.466 177.644 30.553 177.279 30.652 176.904 C 32.101 177.203 33.706 177.418 35.42 177.547 C 36.401 178.834 37.426 180.015 38.458 181.05 C 38.233 181.253 38.009 181.447 37.784 181.63 C 36.412 182.749 35.035 183.544 33.823 183.943 Z M 28.719 174.945 C 26.992 174.394 25.568 173.679 24.59 172.899 C 23.713 172.198 23.27 171.501 23.27 170.935 C 23.27 169.734 25.19 168.2 28.395 167.158 C 28.784 167.032 29.191 166.912 29.613 166.801 C 30.056 168.143 30.636 169.549 31.338 170.97 C 30.628 172.413 30.038 173.84 29.592 175.2 C 29.29 175.118 28.999 175.034 28.719 174.945 Z M 30.429 164.076 C 29.765 160.905 30.205 158.512 31.317 157.913 C 32.501 157.273 35.119 158.184 37.879 160.471 C 38.055 160.617 38.232 160.771 38.41 160.928 C 37.381 161.959 36.366 163.131 35.395 164.409 C 33.731 164.553 32.137 164.784 30.673 165.094 C 30.581 164.748 30.498 164.409 30.429 164.076 Z M 45.695 167.594 C 45.345 167.029 44.985 166.478 44.618 165.942 C 45.748 166.076 46.829 166.252 47.845 166.469 C 47.54 167.381 47.161 168.334 46.713 169.313 C 46.392 168.743 46.052 168.17 45.695 167.594 Z M 39.469 161.936 C 40.166 162.64 40.865 163.428 41.551 164.283 C 40.859 164.251 40.159 164.236 39.452 164.236 C 38.753 164.236 38.057 164.251 37.369 164.28 C 38.056 163.435 38.76 162.65 39.469 161.936 Z M 33.204 167.603 C 32.855 168.169 32.522 168.74 32.205 169.31 C 31.765 168.337 31.388 167.379 31.081 166.454 C 32.091 166.243 33.166 166.071 34.289 165.94 C 33.918 166.481 33.555 167.036 33.204 167.603 Z M 34.321 176.033 C 33.162 175.912 32.07 175.749 31.06 175.543 C 31.373 174.602 31.758 173.624 32.207 172.628 C 32.523 173.199 32.858 173.77 33.21 174.337 C 33.569 174.914 33.94 175.48 34.321 176.033 Z M 39.511 180.035 C 38.794 179.314 38.08 178.517 37.382 177.658 C 38.059 177.683 38.751 177.695 39.452 177.695 C 40.173 177.695 40.887 177.68 41.589 177.651 C 40.898 178.525 40.204 179.323 39.511 180.035 Z M 46.727 172.578 C 47.2 173.583 47.599 174.557 47.915 175.483 C 46.889 175.7 45.781 175.877 44.614 176.007 C 44.981 175.464 45.343 174.903 45.7 174.327 C 46.062 173.743 46.403 173.16 46.727 172.578 Z M 44.391 173.622 C 43.837 174.518 43.269 175.371 42.692 176.178 C 41.643 176.249 40.558 176.285 39.452 176.285 C 38.35 176.285 37.281 176.253 36.247 176.19 C 35.649 175.374 35.067 174.516 34.518 173.63 C 33.971 172.747 33.466 171.855 33.009 170.97 C 33.466 170.082 33.968 169.191 34.514 168.307 C 35.06 167.424 35.636 166.571 36.23 165.759 C 37.282 165.685 38.362 165.646 39.452 165.646 C 40.548 165.646 41.629 165.685 42.681 165.76 C 43.265 166.567 43.837 167.416 44.387 168.301 C 44.94 169.195 45.449 170.08 45.911 170.95 C 45.452 171.835 44.943 172.728 44.391 173.622 Z M 47.509 157.87 C 48.695 158.508 49.155 161.08 48.41 164.452 C 48.363 164.667 48.31 164.887 48.251 165.108 C 46.784 164.792 45.189 164.557 43.52 164.411 C 42.547 163.119 41.54 161.944 40.529 160.928 C 40.801 160.683 41.073 160.451 41.342 160.232 C 43.956 158.11 46.396 157.273 47.509 157.87 Z M 39.452 167.988 C 41.198 167.988 42.613 169.308 42.613 170.935 C 42.613 172.564 41.198 173.884 39.452 173.884 C 37.707 173.884 36.292 172.564 36.292 170.935 C 36.292 169.308 37.707 167.988 39.452 167.988 Z" fill="#7B4AE2" fill-opacity="0.5" style=""/>
  <g clip-path="url(#clip1_21_4106)" transform="matrix(0.87924, 0, 0, 0.820377, -36.371593, -25.758014)" style=""/>
  <g filter="url(#filter3_f_21_4106)" transform="matrix(0.87924, 0, 0, 0.820377, -36.371593, -25.758014)" style="">
    <circle cx="309.624" cy="305.148" r="255.148" fill="#7B4AE2" fill-opacity="0.2">
      <animate attributeName="fill-opacity" values="0.2;1" begin="0s" dur="0.01s" fill="freeze" keyTimes="0; 1"/>
    </circle>
  </g>
  <g filter="url(#filter4_i_21_4106)" transform="matrix(0.87924, 0, 0, 0.820377, -36.371593, -25.758014)" style="">
    <path fill-rule="evenodd" clip-rule="evenodd" d="M262.636 404.465C299.391 424.056 340.608 421.88 372.901 404.463V447.383L373.266 447.373V472.573H262.636V404.465Z" fill="#BB7D52"/>
    <path fill-rule="evenodd" clip-rule="evenodd" d="M262.635 440.226C299.39 459.819 340.607 457.642 372.901 440.226V467.595L397.734 466.977L398.042 466.988C398.042 532.959 240.326 542.834 240.326 466.889L240.942 466.861L262.635 466.972V440.226Z" fill="#D08B5B"/>
    <path fill-rule="evenodd" clip-rule="evenodd" d="M198.067 169.098C285.781 113.249 397.996 133.109 435.909 169.937C446.87 196.314 447.645 221.755 444.42 249.065C451.825 243.751 460.631 244.967 467.569 249.916C470.38 272.577 477.909 317.405 444.169 319.35C432.553 463.956 219.72 481.955 190.95 319.823C157.51 318.669 166.527 273.364 168.616 251.608C176.639 245.504 185.801 248.576 191.487 251.307L198.067 169.098Z" fill="#D08B5B"/>
    <path fill-rule="evenodd" clip-rule="evenodd" d="M185.039 230.339C185.499 231.604 184.002 232.87 179.511 235.172C170.215 239.815 169.4 240.78 169.377 248.053V248.405C169.377 258.185 170.874 260.715 177.322 261.637C183.887 262.558 188.034 264.053 189.186 265.894C189.645 266.7 190.107 270.382 190.107 274.179C190.107 282.349 192.64 293.856 195.75 299.839C204.502 316.87 227.304 325.5 254.943 322.278C268.533 320.551 276.479 317.905 285.116 312.151C298.015 303.522 304.003 292.475 304.924 275.1C305.616 264.513 305.616 264.513 309.071 263.362C313.562 261.752 324.733 261.752 329.34 263.362C332.909 264.628 332.909 264.628 332.909 272.799C332.909 282.234 335.328 293.511 338.552 299.84C347.305 316.87 370.107 325.5 397.631 322.278C411.336 320.552 419.282 317.905 427.92 312.153C440.818 303.523 446.807 292.131 447.958 274.295C448.764 262.558 448.189 263.133 460.857 261.522C467.305 260.717 468.803 258.185 468.803 248.289C468.803 240.464 467.536 238.97 456.826 234.367L450.376 231.604L440.357 228.499L432.987 226.888C428.956 226.082 423.774 225.391 421.585 225.276C419.282 225.276 413.525 223.204 407.767 220.329C398.207 215.61 397.747 215.495 386.461 215.495C373.563 215.495 364.464 218.142 357.093 223.896C354.906 225.621 350.299 227.807 347.074 228.613C343.734 229.419 337.516 231.605 333.255 233.446C322.084 238.164 316.326 237.934 302.046 232.18C295.827 229.65 289.953 227.577 289.148 227.577C288.34 227.577 285.692 225.967 283.274 224.011C275.673 218.027 267.151 215.495 254.022 215.495C242.851 215.495 242.161 215.726 232.257 220.444C225.577 223.666 220.394 225.276 217.285 225.276C214.75 225.391 209.223 226.082 205.077 227.003L185.039 230.339ZM277.17 245.183C290.988 249.67 295.249 255.768 295.365 271.187C295.48 279.358 295.02 282.005 292.832 286.491C285.232 302.026 263.58 310.772 237.898 308.815C218.206 307.204 208.071 301.681 202.659 289.484C199.204 281.544 198.743 262.558 201.967 256.689C204.962 251.165 210.721 247.369 220.163 244.837C227.534 242.881 231.565 242.651 249.991 242.881C265.883 243.226 272.794 243.802 277.17 245.183ZM419.972 245.183C433.793 249.67 438.053 255.768 438.169 271.187C438.284 279.358 437.823 282.005 435.635 286.491C428.034 302.026 406.383 310.772 380.701 308.815C361.009 307.204 350.874 301.681 345.461 289.484C342.006 281.544 341.546 262.558 344.77 256.689C347.765 251.165 353.523 247.369 362.966 244.837C370.337 242.881 374.367 242.651 392.793 242.881C408.686 243.226 415.596 243.802 419.972 245.183Z" fill="#A66F49"/>
    <path fill-rule="evenodd" clip-rule="evenodd" d="M240.087 254.771C233.983 257.647 226.957 264.897 226.957 268.349C226.957 270.995 228.8 270.995 232.37 268.119C241.698 260.754 261.507 260.754 271.641 268.003C273.599 269.269 275.672 270.419 276.363 270.419C278.781 270.419 277.63 266.277 273.945 261.904C269.108 255.921 260.471 252.009 252.293 252.009C248.032 252.009 244.002 252.929 240.087 254.77V254.771Z" fill="#533824"/>
    <path fill-rule="evenodd" clip-rule="evenodd" d="M373.677 254.771C367.573 257.647 360.548 264.897 360.548 268.349C360.548 270.995 362.391 270.995 365.961 268.119C375.289 260.754 395.097 260.754 405.232 268.003C407.189 269.269 409.262 270.419 409.954 270.419C412.372 270.419 411.22 266.277 407.535 261.904C402.698 255.921 394.061 252.009 385.884 252.009C381.623 252.009 377.593 252.929 373.677 254.77L373.677 254.771Z" fill="#533824"/>
    <path fill-rule="evenodd" clip-rule="evenodd" d="M292.256 309.773C293.523 314.721 297.208 318.634 303.657 321.741C308.84 324.272 311.488 324.848 319.089 324.848C326.69 324.848 329.339 324.272 334.521 321.741C340.97 318.634 344.655 314.722 345.922 309.773L346.498 307.242H319.089H291.68L292.256 309.773Z" fill="#AF754C"/>
    <path fill-rule="evenodd" clip-rule="evenodd" d="M185.039 226.003C185.499 227.269 184.002 228.535 179.511 230.836C170.215 235.479 169.4 236.446 169.377 243.718V244.07C169.377 253.85 170.874 256.381 177.322 257.302C183.887 258.222 188.034 259.718 189.186 261.559C189.645 262.365 190.107 266.047 190.107 269.844C190.107 278.014 192.64 289.522 195.75 295.504C204.502 312.535 227.304 321.164 254.943 317.943C268.533 316.216 276.479 313.57 285.116 307.817C298.015 299.187 304.003 288.141 304.924 270.765C305.616 260.178 305.616 260.178 309.071 259.028C313.562 257.418 324.733 257.418 329.34 259.028C332.909 260.293 332.909 260.293 332.909 268.464C332.909 277.899 335.328 289.176 338.552 295.506C347.305 312.535 370.107 321.164 397.631 317.943C411.336 316.217 419.282 313.57 427.92 307.818C440.818 299.188 446.807 287.796 447.958 269.96C448.764 258.222 448.189 258.799 460.857 257.187C467.305 256.382 468.803 253.85 468.803 243.954C468.803 236.13 467.536 234.635 456.826 230.032L450.376 227.269L440.357 224.164L432.987 222.552C428.956 221.747 423.774 221.056 421.585 220.941C419.282 220.941 413.525 218.87 407.767 215.994C398.207 211.276 397.747 211.16 386.461 211.16C373.563 211.16 364.464 213.807 357.093 219.561C354.906 221.286 350.299 223.473 347.074 224.278C343.734 225.084 337.516 227.27 333.255 229.111C322.084 233.829 316.326 233.599 302.046 227.845C295.827 225.315 289.953 223.242 289.148 223.242C288.34 223.242 285.692 221.632 283.274 219.676C275.673 213.692 267.151 211.16 254.022 211.16C242.851 211.16 242.161 211.391 232.257 216.109C225.577 219.331 220.394 220.941 217.285 220.941C214.75 221.056 209.223 221.747 205.077 222.667L185.039 226.003ZM277.17 240.848C290.988 245.336 295.249 251.434 295.365 266.853C295.48 275.023 295.02 277.67 292.832 282.156C285.232 297.691 263.58 306.437 237.898 304.479C218.206 302.869 208.071 297.346 202.659 285.149C199.204 277.209 198.743 258.222 201.967 252.354C204.962 246.83 210.721 243.034 220.163 240.502C227.534 238.546 231.565 238.316 249.991 238.546C265.883 238.89 272.794 239.467 277.17 240.848ZM419.972 240.848C433.793 245.336 438.053 251.434 438.169 266.853C438.284 275.023 437.823 277.67 435.635 282.156C428.034 297.691 406.383 306.437 380.701 304.479C361.009 302.869 350.874 297.346 345.461 285.149C342.006 277.209 341.546 258.222 344.77 252.354C347.765 246.83 353.523 243.034 362.966 240.502C370.337 238.546 374.367 238.316 392.793 238.546C408.686 238.89 415.596 239.467 419.972 240.848Z" fill="#090E16"/>
    <path fill-rule="evenodd" clip-rule="evenodd" d="M286.958 356.03C288.455 365.581 295.711 375.362 304.694 379.965C311.258 383.417 323.35 384.107 330.26 381.461C340.625 377.434 349.608 366.617 351.22 356.03H286.958Z" fill="#3E291B"/>
    <path d="M359.721 578.002L367.116 571.994C368.83 570.602 371.349 570.861 372.742 572.574C374.136 574.286 373.876 576.802 372.162 578.195L368.583 581.102L394.568 602.978C396.281 604.37 396.541 606.887 395.148 608.599C394.357 609.57 393.205 610.074 392.043 610.074C391.156 610.074 390.263 609.781 389.522 609.179L359.721 584.202C358.787 583.443 358.245 582.305 358.245 581.102C358.245 579.899 358.787 578.76 359.721 578.002Z" fill="#7B4AE2"/>
    <path d="M392.56 541.293C394.683 541.31 396.391 543.043 396.374 545.165L396.044 606.263C396.027 608.384 394.291 610.091 392.168 610.074C391.63 610.07 391.12 609.955 390.656 609.752C389.291 609.154 388.341 607.786 388.354 606.201L388.685 545.104C388.702 542.982 390.437 541.276 392.56 541.293Z" fill="#7B4AE2"/>
    <path d="M409.437 583.321L412.169 581.102L402.441 573.198C400.727 571.806 400.468 569.29 401.861 567.577C403.254 565.865 405.773 565.606 407.487 566.998L421.03 578.002C421.965 578.76 422.507 579.899 422.507 581.102C422.507 582.305 421.965 583.443 421.03 584.202L414.483 589.522C413.742 590.123 412.849 590.417 411.963 590.417C410.8 590.417 409.648 589.913 408.857 588.942C407.464 587.23 407.724 584.713 409.437 583.321Z" fill="#C83267"/>
    <path fill-rule="evenodd" clip-rule="evenodd" d="M239.624 466.93C205.652 470.236 174.789 482.889 149.107 503.977C127.008 522.046 120.843 536.407 104.663 556.86C137.629 591.033 181.958 619.988 230.298 635.98C262.543 646.58 284.54 650 319.088 650C353.639 650 375.634 646.58 407.881 635.98C456.649 620.396 497.728 594.859 534.759 558.205C509.396 525.495 498.957 504.057 458.091 483.914C440.931 475.365 420.778 469.21 405.346 467.614L398.078 466.959L397.733 466.952L396.939 472.402C393.485 498.392 360.895 517.542 320.241 517.542C279.589 517.542 247.573 498.619 243.426 472.288C242.621 467.045 242.274 466.588 239.626 466.93H239.624Z" fill="#090E16"/>
  </g>
  <path fill="#73491c" stroke="#000" stroke-miterlimit="10" stroke-width="5" d="M 375.965 159.41 C 333.749 168.488 335.74 115.299 335.74 115.299 C 303.125 124.387 291.797 107.261 288.589 100.054 C 288.153 99.079 287.789 98.076 287.503 97.052 C 263.78 129.487 194.626 148.982 130.951 165.05 C 78.497 178.25 66.526 134.504 63.949 118.707 C 63.395 115.33 63.264 113.233 63.264 113.233 C 63.264 113.233 64.449 125.822 89.356 130.536 C 111.48 134.691 127.287 74.65 135.962 64.441 C 147.298 51.21 162.089 41.075 178.841 35.057 C 183.655 33.319 188.606 31.946 193.647 30.954 C 195.191 30.643 196.747 30.374 198.322 30.133 C 210.634 28.289 223.2 28.68 235.361 31.286 C 242.156 32.73 301.592 64.523 296.243 66.362 C 317.497 59.09 333.044 60.482 344.144 66.487 C 344.698 66.777 345.23 67.077 345.774 67.41 C 349.431 69.635 352.684 72.412 355.406 75.637 C 365.527 87.456 368.964 104.479 368.529 117.876 C 367.638 145.648 416.484 132.955 416.484 132.955 C 416.484 132.955 418.169 150.321 375.965 159.41 Z" class="canChange" style="opacity: 1;">
    <animate attributeName="stroke" values="rgb(0% 0% 0%);rgba(0, 0, 0, 0)" begin="0s" dur="0.01s" fill="freeze" keyTimes="0; 1"/>
  </path>
</svg>