<svg width="62" height="64" viewBox="0 0 62 64" fill="none" xmlns="http://www.w3.org/2000/svg">
<path fill-rule="evenodd" clip-rule="evenodd" d="M25.8158 19.0262C25.1283 18.9305 24.5055 19.0191 24.1905 19.2575C24.0131 19.3917 23.9584 19.5472 23.9437 19.6543C23.9041 19.9378 24.1028 20.2512 24.2247 20.4129C24.57 20.8705 25.0745 21.1851 25.5738 21.2544C25.6462 21.2644 25.7181 21.2693 25.7897 21.2693C26.6224 21.2693 27.3793 20.621 27.4461 20.1424C27.5295 19.5431 26.6594 19.1436 25.8158 19.0262Z" fill="#7B4AE2" fill-opacity="0.5"/>
<path fill-rule="evenodd" clip-rule="evenodd" d="M48.5941 19.0449H48.594C48.5285 18.5752 47.6924 18.4412 46.8991 18.5515C46.107 18.6619 45.3387 19.0194 45.4029 19.4903C45.4544 19.8564 46.1153 20.4815 46.898 20.4814C46.964 20.4814 47.0307 20.477 47.0979 20.4676C47.6203 20.3952 48.0036 20.0635 48.1857 19.8722C48.4631 19.581 48.6234 19.2561 48.5941 19.0449Z" fill="#7B4AE2" fill-opacity="0.5"/>
<mask id="path-3-inside-1_21_3180" fill="white">
<path fill-rule="evenodd" clip-rule="evenodd" d="M61.6637 39.166C61.3727 38.2862 60.4364 38.003 58.8806 38.3245C54.2612 39.2778 52.6069 38.6174 52.0636 38.2174C55.6543 32.7473 58.608 26.1356 60.2014 19.9665C60.9564 17.0443 61.3733 14.3305 61.4073 12.1186C61.4449 9.69047 61.0316 7.90652 60.1787 6.81667C56.7402 2.42299 51.6938 0.0662747 45.585 0.00150562C41.3855 -0.0456681 37.8373 1.02916 37.1494 1.33132C35.7008 0.971069 34.1217 0.749914 32.4026 0.721701C29.2499 0.670735 26.5249 1.42551 24.2686 2.96389C23.2885 2.59925 20.7557 1.72979 17.6585 1.2309C12.3034 0.368581 8.04825 1.02188 5.01154 3.17322C1.38811 5.74032 -0.284661 10.3291 0.0394877 16.8117C0.148548 18.9929 1.39114 25.7024 3.35242 32.128C5.93393 40.5852 8.73993 45.3729 11.6926 46.3576C12.0381 46.4729 12.4368 46.5536 12.876 46.5536C13.9532 46.5536 15.2736 46.0681 16.6475 44.4164C18.9296 41.6709 21.0603 39.3703 21.8457 38.5344C23.0064 39.1575 24.2813 39.5053 25.5856 39.5402C25.5879 39.5743 25.5914 39.6085 25.5944 39.6424C25.3328 39.9528 25.1182 40.2248 24.9352 40.457C24.0316 41.604 23.8436 41.8428 20.9349 42.4418C20.1076 42.6124 17.9098 43.0653 17.8778 44.6057C17.8428 46.2886 20.4753 46.9955 20.7753 47.0704C21.8205 47.3321 22.8274 47.4611 23.7877 47.4611C26.1234 47.461 28.1785 46.6935 29.8211 45.2083C29.7705 51.2082 30.0207 57.1204 30.7411 58.9218C31.331 60.3963 32.7724 64.0003 37.3255 64C37.9934 64 38.7289 63.9223 39.5378 63.749C44.2895 62.7301 46.3528 60.63 47.1512 56C47.5783 53.5256 48.3114 47.6166 48.656 44.4472C49.3836 44.6741 50.3204 44.778 51.3331 44.7779C53.4451 44.7779 55.8821 44.3292 57.4105 43.6197C59.1272 42.8225 62.2255 40.8658 61.6637 39.166ZM50.3479 17.7482C50.3321 18.684 50.2034 19.5334 50.0668 20.4202C49.92 21.3738 49.768 22.3597 49.7298 23.5567C49.692 24.7215 49.8375 25.9325 49.9783 27.1035C50.2625 29.4689 50.5542 31.9042 49.4249 34.3071C49.2494 33.9954 49.08 33.6553 48.9247 33.2787C48.7843 32.9385 48.4796 32.392 48.0578 31.6355C46.416 28.6913 42.5714 21.7967 44.5395 18.9833C45.1256 18.1457 46.6133 17.2849 50.3479 17.7482ZM45.8212 1.89634C51.2946 2.01723 55.6241 4.06481 58.6896 7.9819C61.0407 10.9865 58.4518 24.6577 50.9569 36.4519C50.8829 36.3579 50.8075 36.2629 50.7295 36.1655C50.6984 36.1266 50.6667 36.087 50.6347 36.0469C52.5714 32.8484 52.1927 29.6838 51.8556 26.8779C51.7171 25.7265 51.5864 24.6389 51.6196 23.6175C51.654 22.5345 51.7972 21.606 51.9356 20.708C52.1059 19.6013 52.279 18.4564 52.2312 17.1066C52.2668 16.9651 52.2813 16.7978 52.2626 16.5992C52.1407 15.3047 50.6629 11.4312 47.6508 7.92471C46.0034 6.00712 43.6005 3.86095 40.3199 2.41343C41.731 2.12098 43.6608 1.84825 45.8212 1.89634ZM15.1936 43.2075C13.68 45.0274 12.6346 44.6787 12.2908 44.5642C10.0509 43.817 7.45213 39.0831 5.16079 31.5761C3.17813 25.0805 2.01942 18.5488 1.9278 16.7173C1.63824 10.9248 3.04238 6.88769 6.10139 4.7183C11.0797 1.18786 19.2645 3.30097 22.5533 4.37277C22.506 4.41933 22.4569 4.46302 22.41 4.51034C17.0132 9.9608 17.1412 19.273 17.1544 19.8421C17.154 20.0617 17.1723 20.3727 17.1977 20.8004C17.2905 22.3666 17.4633 25.2816 17.0017 28.5829C16.5726 31.6505 17.5182 34.6531 19.5956 36.8207C19.8107 37.045 20.0352 37.2557 20.2672 37.454C19.3423 38.4443 17.3327 40.6342 15.1936 43.2075ZM20.9608 35.5124C19.2864 33.7655 18.526 31.3353 18.8742 28.8447C19.3618 25.3573 19.1817 22.3202 19.0851 20.6885C19.0716 20.4602 19.0596 20.2601 19.0525 20.1022C19.8409 19.4033 23.4945 17.4455 26.1 18.0425C27.2892 18.3149 28.0135 19.1245 28.3147 20.5172C29.8738 27.7272 28.5212 30.7324 27.4344 33.1472C27.2103 33.6447 26.9987 34.1149 26.8179 34.6016L26.6779 34.9776C26.3233 35.9285 25.9934 36.8125 25.7889 37.6521C24.009 37.6466 22.2774 36.8864 20.9608 35.5124ZM21.234 45.2361C20.7143 45.1063 20.2468 44.8807 19.9726 44.6937C20.2016 44.5858 20.6093 44.4393 21.3163 44.2937C24.7382 43.5891 25.2665 43.0921 26.4205 41.6268C26.6852 41.291 26.9851 40.9101 27.4004 40.4462C27.4005 40.4459 27.4007 40.4458 27.4008 40.4456C28.0196 39.753 28.3025 39.8704 28.8156 40.0833C29.2315 40.2554 29.6365 40.7766 29.8008 41.3503C29.8785 41.6212 29.9658 42.1355 29.6802 42.5355C27.2695 45.9108 23.7568 45.8674 21.234 45.2361ZM39.1415 61.9002C34.9555 62.7971 33.4734 60.6613 32.4967 58.2196C31.8663 56.6432 31.5565 49.5348 31.7763 41.685C31.7792 41.5805 31.7643 41.4796 31.7355 41.3848C31.7105 41.2017 31.672 41.0165 31.6186 40.8301C31.2915 39.6879 30.4951 38.7325 29.5394 38.3364C29.1598 38.1791 28.4628 37.8905 27.6253 38.1047C27.804 37.3688 28.1138 36.5381 28.4494 35.6383L28.5904 35.2597C28.749 34.833 28.9479 34.391 29.1584 33.9232C30.2957 31.3964 31.8534 27.9358 30.1629 20.1175C29.5296 17.1893 27.4151 15.7593 24.2096 16.0914C22.2877 16.2902 20.5297 17.0656 19.6528 17.5102C19.4643 17.6058 19.2918 17.698 19.1307 17.788C19.3754 14.8374 20.3002 9.32354 23.7592 5.83496C25.9369 3.63858 28.8374 2.55389 32.3714 2.61229C39.3344 2.72635 43.7996 6.29972 46.3195 9.27743C48.4908 11.8435 49.6667 14.4282 50.136 15.8221C46.6071 15.4634 44.207 16.1601 42.9902 17.8995C40.3433 21.6831 44.4383 29.027 46.4064 32.5564C46.7673 33.2033 47.0788 33.7623 47.1768 33.9998C47.8177 35.553 48.6474 36.5899 49.2532 37.347C49.4389 37.5789 49.6191 37.8039 49.756 38.0003C48.6873 38.3085 46.7674 39.0204 46.9423 42.579C46.8012 44.3648 45.7977 52.725 45.288 55.6788C44.6152 59.581 43.1792 61.0346 39.1415 61.9002ZM56.6143 41.9048C55.5214 42.4122 53.6924 42.7928 51.9548 42.8744C50.0357 42.9643 49.0589 42.6594 48.8291 42.472C48.7211 40.2543 49.5467 40.0226 50.4202 39.7773C50.5575 39.7386 50.6915 39.7011 50.8207 39.6559C50.9011 39.7213 50.9891 39.7862 51.0854 39.8498C52.6279 40.8679 55.3791 40.9777 59.263 40.1761C59.2772 40.173 59.2915 40.1703 59.3056 40.1674C58.7818 40.6572 57.8854 41.3146 56.6143 41.9048Z"/>
</mask>
<path d="M58.8806 38.3245L60.4975 46.1594L60.4991 46.159L58.8806 38.3245ZM52.0636 38.2174L45.3757 33.8273L41.2154 40.1652L47.3208 44.6598L52.0636 38.2174ZM60.2014 19.9665L52.4557 17.9654L52.4556 17.9658L60.2014 19.9665ZM61.4073 12.1186L53.4083 11.9947L53.4083 11.9958L61.4073 12.1186ZM60.1787 6.81667L66.4787 1.88622L66.4787 1.88621L60.1787 6.81667ZM45.585 0.00150562L45.4952 8.001L45.5002 8.00106L45.585 0.00150562ZM37.1494 1.33132L35.2187 9.09484L37.8676 9.7536L40.3667 8.65586L37.1494 1.33132ZM32.4026 0.721701L32.5339 -7.27722L32.5319 -7.27725L32.4026 0.721701ZM24.2686 2.96389L21.4788 10.4617L25.3567 11.9046L28.7753 9.57372L24.2686 2.96389ZM17.6585 1.2309L18.9307 -6.66729L18.9303 -6.66735L17.6585 1.2309ZM5.01154 3.17322L0.386927 -3.35465L0.386791 -3.35455L5.01154 3.17322ZM0.0394877 16.8117L8.02951 16.4122L8.02951 16.4122L0.0394877 16.8117ZM3.35242 32.128L-4.2991 34.4635L-4.29906 34.4636L3.35242 32.128ZM11.6926 46.3576L14.2244 38.7688L14.2236 38.7686L11.6926 46.3576ZM16.6475 44.4164L22.7978 49.5325L22.7997 49.5302L16.6475 44.4164ZM21.8457 38.5344L25.6297 31.4859L20.2199 28.5816L16.0155 33.0564L21.8457 38.5344ZM25.5856 39.5402L33.5679 39.0081L33.0833 31.7379L25.7995 31.5431L25.5856 39.5402ZM25.5944 39.6424L31.7107 44.7991L33.8592 42.2508L33.5627 38.931L25.5944 39.6424ZM24.9352 40.457L31.2195 45.4075L31.2196 45.4073L24.9352 40.457ZM20.9349 42.4418L19.3212 34.6062L19.3187 34.6067L20.9349 42.4418ZM17.8778 44.6057L25.8761 44.7722L25.8761 44.7719L17.8778 44.6057ZM20.7753 47.0704L22.718 39.3099L22.7137 39.3088L20.7753 47.0704ZM23.7877 47.4611V55.4611H23.7883L23.7877 47.4611ZM29.8211 45.2083L37.8208 45.2759L37.9747 27.0512L24.4558 39.2742L29.8211 45.2083ZM30.7411 58.9218L23.313 61.8921L23.3134 61.8933L30.7411 58.9218ZM37.3255 64V56H37.325L37.3255 64ZM39.5378 63.749L41.2144 71.5713L41.2151 71.5712L39.5378 63.749ZM47.1512 56L39.2678 54.6392L39.2675 54.6407L47.1512 56ZM48.656 44.4472L51.0378 36.81L41.7541 33.9147L40.7029 43.5824L48.656 44.4472ZM51.3331 44.7779V36.7779H51.3319L51.3331 44.7779ZM57.4105 43.6197L60.7787 50.8761L60.78 50.8755L57.4105 43.6197ZM50.0668 20.4202L57.9737 21.6376L57.9737 21.6374L50.0668 20.4202ZM49.7298 23.5567L57.7256 23.816L57.7257 23.812L49.7298 23.5567ZM49.9783 27.1035L57.9211 26.149L57.9211 26.1487L49.9783 27.1035ZM49.4249 34.3071L42.4538 38.232L50.066 51.7522L56.6652 37.7097L49.4249 34.3071ZM48.9247 33.2787L41.5289 36.3287L41.5289 36.3288L48.9247 33.2787ZM48.0578 31.6355L55.0448 27.7392L55.0448 27.7392L48.0578 31.6355ZM44.5395 18.9833L37.9848 14.3967L37.9842 14.3976L44.5395 18.9833ZM58.6896 7.9819L64.9899 3.05181L64.9897 3.05144L58.6896 7.9819ZM50.9569 36.4519L44.6706 41.3999L51.6535 50.2716L57.7089 40.7426L50.9569 36.4519ZM50.7295 36.1655L44.4755 41.1542L44.48 41.1598L44.4845 41.1655L50.7295 36.1655ZM50.6347 36.0469L43.7914 31.9034L40.8993 36.6798L44.3855 41.0416L50.6347 36.0469ZM51.8556 26.8779L59.7985 25.9238L59.7984 25.9226L51.8556 26.8779ZM51.6196 23.6175L59.6154 23.8775L59.6156 23.8717L51.6196 23.6175ZM51.9356 20.708L59.8423 21.9261L59.8425 21.9251L51.9356 20.708ZM52.2312 17.1066L44.4735 15.1526L44.196 16.2543L44.2362 17.3896L52.2312 17.1066ZM52.2626 16.5992L60.2275 15.8508L60.2273 15.8488L52.2626 16.5992ZM47.6508 7.92471L53.7192 2.71181L53.7189 2.71147L47.6508 7.92471ZM40.3199 2.41343L38.6965 -5.42011L14.2371 -0.35104L37.0904 9.73261L40.3199 2.41343ZM12.2908 44.5642L9.75933 52.1531L9.76203 52.154L12.2908 44.5642ZM5.16079 31.5761L12.8123 29.2406L12.8123 29.2406L5.16079 31.5761ZM1.9278 16.7173L-6.06222 17.1167L-6.06221 17.1169L1.9278 16.7173ZM6.10139 4.7183L1.47361 -1.80731L1.47358 -1.80729L6.10139 4.7183ZM22.5533 4.37277L28.1643 10.0751L37.5453 0.844441L25.0322 -3.23351L22.5533 4.37277ZM22.41 4.51034L16.7259 -1.11912L16.7252 -1.11844L22.41 4.51034ZM17.1544 19.8421L25.1544 19.8587L25.1546 19.7577L25.1523 19.6567L17.1544 19.8421ZM17.1977 20.8004L9.21166 21.2734L9.21169 21.2738L17.1977 20.8004ZM17.0017 28.5829L24.9246 29.6912L24.9246 29.6907L17.0017 28.5829ZM19.5956 36.8207L13.82 42.3562L13.821 42.3572L19.5956 36.8207ZM20.2672 37.454L26.1141 42.9141L31.8195 36.8045L25.4653 31.3729L20.2672 37.454ZM18.8742 28.8447L26.7972 29.9525L26.7972 29.9523L18.8742 28.8447ZM19.0851 20.6885L11.099 21.1608L11.0991 21.1614L19.0851 20.6885ZM19.0525 20.1022L13.7456 14.1158L10.8884 16.6487L11.0606 20.4631L19.0525 20.1022ZM26.1 18.0425L24.3132 25.8404L24.3136 25.8405L26.1 18.0425ZM28.3147 20.5172L36.134 18.8265L36.1339 18.826L28.3147 20.5172ZM27.4344 33.1472L34.7289 36.432L34.7296 36.4305L27.4344 33.1472ZM26.8179 34.6016L34.3151 37.393L34.317 37.388L26.8179 34.6016ZM26.6779 34.9776L34.1736 37.7731L34.1751 37.769L26.6779 34.9776ZM25.7889 37.6521L25.7644 45.652L32.0697 45.6714L33.5617 39.5451L25.7889 37.6521ZM19.9726 44.6937L16.5646 37.4559L3.9028 43.4178L15.4652 51.303L19.9726 44.6937ZM21.3163 44.2937L19.703 36.4581L19.7025 36.4582L21.3163 44.2937ZM26.4205 41.6268L20.1375 36.6747L20.1357 36.677L26.4205 41.6268ZM27.4004 40.4462L33.3605 45.7826L34.0761 44.9834L34.5558 44.024L27.4004 40.4462ZM27.4008 40.4456L33.0625 46.0977L33.2192 45.9408L33.3669 45.7754L27.4008 40.4456ZM28.8156 40.0833L25.7509 47.473L25.7559 47.475L28.8156 40.0833ZM29.8008 41.3503L22.1099 43.5526L22.1105 43.5549L29.8008 41.3503ZM29.6802 42.5355L36.1902 47.1852L36.1907 47.1845L29.6802 42.5355ZM32.4967 58.2196L25.0686 61.19L25.0689 61.1908L32.4967 58.2196ZM31.7763 41.685L39.7732 41.9089L39.7733 41.9055L31.7763 41.685ZM31.7355 41.3848L23.8092 42.4684L23.8957 43.1009L24.0814 43.7117L31.7355 41.3848ZM31.6186 40.8301L23.9276 43.0322L23.9278 43.0328L31.6186 40.8301ZM29.5394 38.3364L32.6024 30.946L32.6015 30.9456L29.5394 38.3364ZM27.6253 38.1047L19.8513 36.2168L16.7097 49.1538L29.6075 45.8552L27.6253 38.1047ZM28.4494 35.6383L35.9448 38.4345L35.947 38.4288L28.4494 35.6383ZM28.5904 35.2597L36.0879 38.0502L36.0887 38.0479L28.5904 35.2597ZM29.1584 33.9232L21.8634 30.6396L21.8632 30.6399L29.1584 33.9232ZM30.1629 20.1175L37.9822 18.4268L37.9821 18.4265L30.1629 20.1175ZM24.2096 16.0914L25.033 24.0489L25.0338 24.0488L24.2096 16.0914ZM19.6528 17.5102L23.2695 24.646L23.2705 24.6455L19.6528 17.5102ZM19.1307 17.788L11.1581 17.1269L9.91687 32.0955L23.0309 24.7728L19.1307 17.788ZM23.7592 5.83496L29.4401 11.4677L29.4402 11.4676L23.7592 5.83496ZM32.3714 2.61229L32.2392 10.6112L32.2403 10.6112L32.3714 2.61229ZM46.3195 9.27743L52.4265 4.10976L52.4262 4.1095L46.3195 9.27743ZM50.136 15.8221L49.3269 23.7811L61.6795 25.0368L57.7178 13.2696L50.136 15.8221ZM42.9902 17.8995L36.435 13.3136L36.435 13.3137L42.9902 17.8995ZM46.4064 32.5564L39.4193 36.4526L39.4198 36.4535L46.4064 32.5564ZM47.1768 33.9998L39.7813 37.0505L39.7815 37.0511L47.1768 33.9998ZM49.2532 37.347L43.007 42.3455L43.0078 42.3465L49.2532 37.347ZM49.756 38.0003L51.9728 45.687L62.7097 42.5906L56.3182 33.4245L49.756 38.0003ZM46.9423 42.579L54.9174 43.209L54.9578 42.6982L54.9327 42.1863L46.9423 42.579ZM45.288 55.6788L37.4045 54.3185L37.4044 54.3194L45.288 55.6788ZM51.9548 42.8744L52.3294 50.8656L52.3302 50.8656L51.9548 42.8744ZM48.8291 42.472L40.8386 42.8611L41.0118 46.4189L43.7719 48.6707L48.8291 42.472ZM50.4202 39.7773L52.5828 47.4794L52.5899 47.4775L50.4202 39.7773ZM50.8207 39.6559L55.8681 33.4492L52.3995 30.6285L48.1795 32.1045L50.8207 39.6559ZM51.0854 39.8498L55.4923 33.1731L55.4914 33.1724L51.0854 39.8498ZM59.263 40.1761L60.8801 48.0109L60.904 48.006L60.9278 48.0009L59.263 40.1761ZM59.3056 40.1674L64.7697 46.0106L85.465 26.6579L57.7043 32.3293L59.3056 40.1674ZM69.2591 36.6543C68.2471 33.5939 65.8663 31.4852 63.062 30.6372C60.7582 29.9406 58.6133 30.2107 57.262 30.4899L60.4991 46.159C60.7037 46.1168 59.8049 46.3678 58.4309 45.9523C57.6513 45.7166 56.6975 45.256 55.8171 44.4202C54.9246 43.5731 54.3692 42.588 54.0682 41.6777L69.2591 36.6543ZM57.2636 30.4896C56.375 30.673 55.733 30.757 55.2969 30.7923C55.0807 30.8098 54.9228 30.8147 54.8171 30.815C54.7113 30.8153 54.6632 30.8108 54.6654 30.811C54.6656 30.8111 54.898 30.8316 55.284 30.9629C55.6786 31.0971 56.219 31.3424 56.8064 31.7749L47.3208 44.6598C50.6997 47.1473 55.2854 47.235 60.4975 46.1593L57.2636 30.4896ZM58.7514 42.6074C62.8066 36.4298 66.127 29.0143 67.9472 21.9671L52.4556 17.9658C51.089 23.2568 48.5019 29.0649 45.3757 33.8273L58.7514 42.6074ZM67.9471 21.9675C68.8075 18.6373 69.3599 15.2694 69.4064 12.2415L53.4083 11.9958C53.3868 13.3916 53.1053 15.4512 52.4557 17.9654L67.9471 21.9675ZM69.4064 12.2426C69.4531 9.22471 69.0397 5.1586 66.4787 1.88622L53.8786 11.7471C53.6319 11.4318 53.4905 11.1606 53.4162 10.992C53.3429 10.8257 53.3263 10.7407 53.3335 10.7717C53.3404 10.8018 53.3637 10.9148 53.3827 11.1282C53.4015 11.3402 53.414 11.6262 53.4083 11.9947L69.4064 12.2426ZM66.4787 1.88621C61.387 -4.61988 53.9455 -7.9103 45.6698 -7.99804L45.5002 8.00106C49.4421 8.04285 52.0933 9.46585 53.8786 11.7471L66.4787 1.88621ZM45.6749 -7.99799C40.3737 -8.05754 35.6945 -6.76736 33.9321 -5.99322L40.3667 8.65586C40.0525 8.7939 40.004 8.78555 40.3806 8.67713C40.6651 8.59522 41.0909 8.48608 41.6242 8.37907C42.7086 8.16148 44.0758 7.98506 45.4952 8.001L45.6749 -7.99799ZM39.0801 -6.43221C37.0479 -6.93762 34.8651 -7.23896 32.5339 -7.27722L32.2713 8.72062C33.3782 8.73879 34.3538 8.87976 35.2187 9.09484L39.0801 -6.43221ZM32.5319 -7.27725C27.9803 -7.35083 23.578 -6.24783 19.7619 -3.64593L28.7753 9.57372C29.4717 9.09886 30.5195 8.6923 32.2733 8.72066L32.5319 -7.27725ZM27.0583 -4.53392C25.8003 -5.00202 22.7303 -6.05526 18.9307 -6.66729L16.3863 9.1291C18.7811 9.51485 20.7768 10.2005 21.4788 10.4617L27.0583 -4.53392ZM18.9303 -6.66735C12.45 -7.71087 5.7811 -7.1761 0.386927 -3.35465L9.63615 9.70108C10.3154 9.21987 12.1568 8.44803 16.3866 9.12916L18.9303 -6.66735ZM0.386791 -3.35455C-6.39142 1.44763 -8.34322 9.35773 -7.95053 17.2112L8.02951 16.4122C7.7739 11.3004 9.16764 10.033 9.63628 9.70098L0.386791 -3.35455ZM-7.95053 17.2112C-7.79414 20.3391 -6.3435 27.7655 -4.2991 34.4635L11.0039 29.7926C10.1063 26.8517 9.36352 23.8105 8.83556 21.2579C8.57237 19.9854 8.36999 18.8701 8.23076 17.9822C8.16121 17.5386 8.11064 17.1723 8.07648 16.8857C8.05953 16.7435 8.04778 16.6306 8.03998 16.5451C8.03613 16.503 8.03351 16.4705 8.0318 16.447C8.03007 16.4233 8.0295 16.4121 8.02951 16.4122L-7.95053 17.2112ZM-4.29906 34.4636C-2.92066 38.9793 -1.35762 42.9525 0.481434 46.0902C2.16823 48.9682 4.87503 52.5171 9.16162 53.9467L14.2236 38.7686C15.5575 39.2134 15.385 39.8761 14.2852 37.9997C13.3377 36.3832 12.207 33.7339 11.0039 29.7924L-4.29906 34.4636ZM9.16079 53.9464C10.1937 54.2911 11.4501 54.5536 12.876 54.5536V38.5536C13.4235 38.5536 13.8825 38.6548 14.2244 38.7688L9.16079 53.9464ZM12.876 54.5536C16.7504 54.5536 20.195 52.6613 22.7978 49.5325L10.4973 39.3003C10.3681 39.4556 10.505 39.2408 10.9872 38.9924C11.5022 38.7271 12.1613 38.5536 12.876 38.5536V54.5536ZM22.7997 49.5302C24.9383 46.9573 26.9485 44.7866 27.676 44.0124L16.0155 33.0564C15.1721 33.954 12.9209 36.3845 10.4953 39.3026L22.7997 49.5302ZM18.0617 45.5829C20.2839 46.7759 22.777 47.4679 25.3717 47.5373L25.7995 31.5431C25.7856 31.5427 25.7289 31.5391 25.6297 31.4859L18.0617 45.5829ZM17.6034 40.0723C17.6105 40.1793 17.6182 40.2665 17.622 40.3092C17.6239 40.3304 17.6258 40.3504 17.6263 40.3556C17.6271 40.3648 17.6268 40.3607 17.6261 40.3539L33.5627 38.931C33.5606 38.9072 33.5587 38.886 33.5579 38.8783C33.5568 38.8664 33.5571 38.8694 33.5575 38.8735C33.558 38.8792 33.5594 38.895 33.5612 38.9167C33.563 38.9387 33.5654 38.97 33.5679 39.0081L17.6034 40.0723ZM19.4782 34.4858C19.1234 34.9066 18.8373 35.2698 18.6508 35.5066L31.2196 45.4073C31.399 45.1797 31.5422 44.999 31.7107 44.7991L19.4782 34.4858ZM18.6509 35.5065C18.5229 35.669 18.4848 35.7166 18.4621 35.744C18.4484 35.7605 18.5156 35.6776 18.6386 35.5528C18.7717 35.4176 18.9622 35.241 19.2078 35.0549C19.4557 34.8671 19.7034 34.7122 19.9358 34.5889C20.3673 34.3598 20.6381 34.2983 20.4848 34.3416C20.3292 34.3856 19.9998 34.4664 19.3212 34.6062L22.5485 50.2773C23.8267 50.0141 25.7381 49.6234 27.4381 48.7209C29.6625 47.5401 30.8848 45.8324 31.2195 45.4075L18.6509 35.5065ZM19.3187 34.6067C18.9965 34.6732 17.2578 34.9944 15.5419 35.8489C13.9858 36.6239 9.98968 39.1393 9.87955 44.4395L25.8761 44.7719C25.841 46.4606 25.1566 47.8761 24.3368 48.8362C23.6236 49.6716 22.9149 50.0514 22.6743 50.1712C22.2721 50.3716 22.0459 50.381 22.551 50.2768L19.3187 34.6067ZM9.87956 44.4392C9.76434 49.9732 14.0273 52.6962 15.2208 53.3807C16.8676 54.3252 18.4422 54.7334 18.8369 54.832L22.7137 39.3088C22.8083 39.3324 22.9167 39.3498 23.181 39.5014C23.3241 39.5835 23.8933 39.9188 24.4877 40.652C25.1634 41.4854 25.9148 42.9143 25.8761 44.7722L9.87956 44.4392ZM18.8326 54.8309C20.4494 55.2357 22.1099 55.4611 23.7877 55.4611V39.4611C23.545 39.4611 23.1917 39.4284 22.718 39.3099L18.8326 54.8309ZM23.7883 55.4611C27.9881 55.4609 31.9879 54.0344 35.1864 51.1424L24.4558 39.2742C24.3703 39.3515 24.3134 39.3793 24.2658 39.3971C24.2133 39.4167 24.0699 39.4611 23.7872 39.4611L23.7883 55.4611ZM21.8214 45.1408C21.7951 48.2497 21.8455 51.4213 22.0062 54.1157C22.0862 55.4574 22.1988 56.7745 22.3609 57.9529C22.4994 58.96 22.7497 60.4836 23.313 61.8921L38.1692 55.9514C38.3723 56.4593 38.3211 56.5683 38.2117 55.7727C38.1258 55.1485 38.0441 54.2748 37.9778 53.1633C37.8459 50.9512 37.7964 48.1668 37.8208 45.2759L21.8214 45.1408ZM23.3134 61.8933C23.6048 62.6217 24.5633 65.1627 26.6726 67.4444C29.0386 70.0039 32.6046 72.0003 37.3261 72L37.325 56C37.2869 56 37.3262 55.9966 37.4253 56.0177C37.5259 56.0391 37.6563 56.079 37.8016 56.1459C38.1075 56.2866 38.3159 56.4691 38.4216 56.5835C38.5105 56.6796 38.5083 56.7064 38.4457 56.5883C38.3781 56.4609 38.3155 56.3171 38.1687 55.9503L23.3134 61.8933ZM37.3255 72C38.6142 72 39.9134 71.8502 41.2144 71.5713L37.8613 55.9266C37.5444 55.9945 37.3726 56 37.3255 56V72ZM41.2151 71.5712C44.3801 70.8925 47.7942 69.6235 50.5336 66.8354C53.3043 64.0153 54.4823 60.5639 55.0348 57.3594L39.2675 54.6407C39.0217 56.0662 38.7688 55.9798 39.1204 55.622C39.4406 55.2961 39.4472 55.5865 37.8606 55.9268L41.2151 71.5712ZM55.0346 57.3609C55.5079 54.6189 56.2632 48.4935 56.6091 45.312L40.7029 43.5824C40.3596 46.7398 39.6487 52.4324 39.2678 54.6392L55.0346 57.3609ZM46.2743 52.0844C48.0634 52.6424 49.8872 52.7781 51.3343 52.7779L51.3319 36.7779C51.0906 36.7779 50.9272 36.765 50.8428 36.7549C50.8034 36.7501 50.7984 36.748 50.8245 36.7533C50.8492 36.7583 50.9234 36.7743 51.0378 36.81L46.2743 52.0844ZM51.3331 52.7779C54.2492 52.7779 57.9114 52.207 60.7787 50.8761L54.0422 36.3634C54.0679 36.3515 53.7634 36.4797 53.1071 36.6036C52.4978 36.7186 51.8578 36.7779 51.3331 36.7779V52.7779ZM60.78 50.8755C62.0681 50.2773 63.9835 49.2135 65.6493 47.7609C66.4665 47.0483 67.6221 45.9015 68.4936 44.3107C69.4062 42.645 70.3166 39.8535 69.2595 36.6553L54.0679 41.6767C53.2917 39.3284 54.0255 37.4189 54.4615 36.623C54.8565 35.9021 55.2355 35.613 55.1338 35.7017C54.9617 35.8517 54.4696 36.1649 54.0409 36.364L60.78 50.8755ZM42.349 17.6134C42.3437 17.9304 42.3034 18.2713 42.16 19.2029L57.9737 21.6374C58.1033 20.7955 58.3206 19.4375 58.3468 17.8831L42.349 17.6134ZM42.16 19.2028C42.0149 20.1455 41.7893 21.5659 41.7339 23.3013L57.7257 23.812C57.7467 23.1536 57.8252 22.6021 57.9737 21.6376L42.16 19.2028ZM41.734 23.2974C41.673 25.1778 41.9088 27.0046 42.0354 28.0583L57.9211 26.1487C57.7662 24.8604 57.711 24.2652 57.7256 23.816L41.734 23.2974ZM42.0354 28.058C42.1891 29.337 42.2487 29.9543 42.2346 30.4741C42.2288 30.6869 42.21 30.8018 42.1994 30.852C42.1904 30.8948 42.1848 30.9041 42.1846 30.9045L56.6652 37.7097C58.9126 32.9277 58.1686 28.2082 57.9211 26.149L42.0354 28.058ZM56.396 30.3823C56.3628 30.3234 56.3396 30.2752 56.3204 30.2287L41.5289 36.3288C41.8203 37.0355 42.136 37.6674 42.4538 38.232L56.396 30.3823ZM56.3204 30.2287C55.9513 29.3337 55.3284 28.2478 55.0448 27.7392L41.0707 35.5318C41.293 35.9305 41.4365 36.1883 41.543 36.3873C41.593 36.4807 41.615 36.5245 41.6195 36.5336C41.6279 36.5506 41.5878 36.4717 41.5289 36.3287L56.3204 30.2287ZM55.0448 27.7392C54.1898 26.206 53.1108 24.244 52.4314 22.4404C52.0883 21.5296 51.9991 21.0443 51.988 20.9333C51.9636 20.6907 52.1866 22.0082 51.0948 23.5689L37.9842 14.3976C35.9083 17.3651 35.8738 20.5994 36.0681 22.5328C36.2756 24.5979 36.8811 26.5478 37.4584 28.0804C38.6197 31.1634 40.2839 34.1208 41.0707 35.5318L55.0448 27.7392ZM51.0941 23.5698C50.6848 24.1548 50.1939 24.628 49.6785 24.9797C49.1732 25.3245 48.7352 25.4912 48.4717 25.5669C48.0062 25.7007 48.147 25.5365 49.3628 25.6874L51.333 9.80913C46.5632 9.21729 41.1424 9.88428 37.9848 14.3967L51.0941 23.5698ZM45.6445 9.89439C48.9941 9.96837 50.9631 11.0897 52.3896 12.9123L64.9897 3.05144C60.285 -2.96003 53.5951 -5.93391 45.9978 -6.10171L45.6445 9.89439ZM52.3893 12.912C51.9815 12.3909 51.7638 11.9329 51.6556 11.6654C51.5455 11.3929 51.5079 11.2162 51.5011 11.1827C51.4918 11.137 51.5368 11.3547 51.5282 11.9157C51.5109 13.0342 51.2947 14.7742 50.7452 17.0176C49.6517 21.4819 47.4622 27.0353 44.2049 32.1612L57.7089 40.7426C61.9464 34.0743 64.7988 26.895 66.2858 20.824C67.0265 17.7998 67.4852 14.8214 67.5263 12.163C67.5468 10.8355 67.4669 9.40003 67.1784 7.98549C66.908 6.65967 66.3411 4.77855 64.9899 3.05181L52.3893 12.912ZM57.2432 31.504C57.1551 31.392 57.0659 31.2797 56.9746 31.1656L44.4845 41.1655C44.5491 41.2462 44.6107 41.3238 44.6706 41.3999L57.2432 31.504ZM56.9836 31.1769C56.9496 31.1343 56.9094 31.084 56.884 31.0522L44.3855 41.0416C44.4241 41.0899 44.4472 41.1188 44.4755 41.1542L56.9836 31.1769ZM57.478 40.1905C61.0045 34.3664 60.1147 28.5558 59.7985 25.9238L43.9127 27.832C44.2707 30.8117 44.1384 31.3303 43.7914 31.9034L57.478 40.1905ZM59.7984 25.9226C59.6428 24.6291 59.6057 24.1749 59.6154 23.8775L43.6238 23.3574C43.5671 25.103 43.7915 26.8238 43.9129 27.8332L59.7984 25.9226ZM59.6156 23.8717C59.6327 23.3341 59.7 22.8497 59.8423 21.9261L44.0288 19.49C43.8945 20.3623 43.6754 21.7348 43.6237 23.3633L59.6156 23.8717ZM59.8425 21.9251C60.0107 20.8319 60.3036 19.011 60.2262 16.8236L44.2362 17.3896C44.2543 17.9019 44.2011 18.3708 44.0287 19.491L59.8425 21.9251ZM59.9889 19.0606C60.2693 17.9473 60.3222 16.8589 60.2275 15.8508L44.2977 17.3476C44.2403 16.7367 44.2644 15.9829 44.4735 15.1526L59.9889 19.0606ZM60.2273 15.8488C60.0306 13.7609 59.1292 11.4356 58.2378 9.59868C57.2194 7.50028 55.7346 5.058 53.7192 2.71181L41.5824 13.1376C42.5791 14.2979 43.3392 15.5456 43.8433 16.5843C44.0929 17.0986 44.2509 17.5025 44.3352 17.752C44.4573 18.1134 44.352 17.9241 44.2979 17.3496L60.2273 15.8488ZM53.7189 2.71147C51.5083 0.138345 48.1868 -2.8596 43.5494 -4.90576L37.0904 9.73261C39.0143 10.5815 40.4984 11.8759 41.5827 13.138L53.7189 2.71147ZM41.9434 10.247C42.9283 10.0428 44.2364 9.86305 45.6432 9.89436L45.9992 -6.10168C43.0851 -6.16654 40.5337 -5.80088 38.6965 -5.42011L41.9434 10.247ZM9.04298 38.0919C8.9996 38.144 9.70732 37.2727 11.3246 36.8598C12.121 36.6565 12.9105 36.6273 13.628 36.7132C14.3142 36.7954 14.8334 36.9789 14.8197 36.9744L9.76203 52.154C10.3868 52.3621 12.5322 53.0647 15.2824 52.3626C17.8867 51.6978 19.874 50.0909 21.3443 48.3231L9.04298 38.0919ZM14.8224 36.9753C16.1217 37.4087 16.6555 38.0972 16.5232 37.9489C16.4618 37.8801 16.1875 37.5378 15.7579 36.7552C14.9022 35.1966 13.8689 32.7023 12.8123 29.2406L-2.49072 33.9115C-1.25598 37.9568 0.155777 41.583 1.73233 44.4548C2.51882 45.8875 3.45741 47.3379 4.58488 48.6015C5.64144 49.7856 7.34009 51.346 9.75933 52.1531L14.8224 36.9753ZM12.8123 29.2406C11.9066 26.2732 11.1799 23.2639 10.6717 20.7887C10.4184 19.555 10.2263 18.4878 10.096 17.6576C10.0308 17.2423 9.98439 16.9074 9.95386 16.6549C9.92078 16.3813 9.91615 16.2843 9.91781 16.3176L-6.06221 17.1169C-5.92384 19.8832 -4.56221 27.1249 -2.49071 33.9116L12.8123 29.2406ZM9.91782 16.3178C9.807 14.101 10.054 12.7373 10.3149 11.9873C10.4381 11.633 10.5526 11.4484 10.6104 11.368C10.6629 11.2951 10.6982 11.2659 10.7292 11.2439L1.47358 -1.80729C-4.85307 2.67943 -6.40965 10.1667 -6.06222 17.1167L9.91782 16.3178ZM10.7292 11.2439C10.9843 11.063 12.0251 10.6296 14.3884 10.7992C16.5575 10.9548 18.7344 11.5423 20.0745 11.979L25.0322 -3.23351C23.0834 -3.86859 19.5235 -4.87352 15.5334 -5.1598C11.7375 -5.43214 6.1967 -5.1568 1.47361 -1.80731L10.7292 11.2439ZM16.9424 -1.3296C16.977 -1.36366 17.0026 -1.388 17.0106 -1.3956C17.0135 -1.3984 17.0218 -1.4062 16.997 -1.38288C16.981 -1.36778 16.9441 -1.333 16.9008 -1.29142C16.8562 -1.24847 16.7956 -1.18954 16.7259 -1.11912L28.0941 10.1398C28.0478 10.1866 28.011 10.2223 27.9902 10.2423C27.9708 10.2609 27.9579 10.273 27.9659 10.2654C27.9676 10.2638 27.9694 10.2622 27.9728 10.259C27.9758 10.2562 27.9802 10.252 27.9849 10.2476C27.9942 10.2388 28.0083 10.2255 28.0245 10.2101C28.0565 10.1797 28.106 10.1325 28.1643 10.0751L16.9424 -1.3296ZM16.7252 -1.11844C12.4725 3.17654 10.7067 8.60188 9.92122 12.3771C9.1105 16.2736 9.14223 19.4079 9.15659 20.0276L25.1523 19.6567C25.1535 19.7072 25.1146 17.9009 25.5857 15.6363C26.0821 13.2506 26.9507 11.2946 28.0948 10.1391L16.7252 -1.11844ZM9.15446 19.8255C9.15337 20.3519 9.19336 20.9642 9.21166 21.2734L25.1837 20.3275C25.1703 20.1009 25.1622 19.9627 25.157 19.8555C25.1546 19.8067 25.1538 19.7836 25.1537 19.7784C25.1535 19.7719 25.1545 19.8025 25.1544 19.8587L9.15446 19.8255ZM9.21169 21.2738C9.30166 22.7917 9.4218 25.0217 9.07877 27.4751L24.9246 29.6907C25.5047 25.5416 25.2793 21.9414 25.1837 20.3271L9.21169 21.2738ZM9.07884 27.4746C8.32275 32.8797 9.98586 38.3558 13.82 42.3562L25.3713 31.2852C25.0505 30.9505 24.8224 30.4214 24.9246 29.6912L9.07884 27.4746ZM13.821 42.3572C14.229 42.7828 14.6472 43.1745 15.069 43.535L25.4653 31.3729C25.4232 31.3369 25.3924 31.3072 25.3703 31.2842L13.821 42.3572ZM14.4202 31.9939C13.4374 33.0463 11.3149 35.3587 9.04153 38.0936L21.3457 48.3214C23.3505 45.9096 25.2473 43.8424 26.1141 42.9141L14.4202 31.9939ZM26.7362 29.9767C26.7505 29.9915 26.7643 30.0096 26.7755 30.0287C26.7865 30.0474 26.7918 30.0616 26.7939 30.0683C26.796 30.0748 26.7937 30.0704 26.7923 30.053C26.791 30.0358 26.7902 30.0025 26.7972 29.9525L10.9513 27.7368C10.2793 32.543 11.7394 37.453 15.1854 41.0481L26.7362 29.9767ZM26.7972 29.9523C27.4027 25.6211 27.171 21.9035 27.0711 20.2156L11.0991 21.1614C11.1924 22.7368 11.3208 25.0936 10.9513 27.7371L26.7972 29.9523ZM27.0711 20.2162C27.056 19.9607 27.0483 19.8294 27.0443 19.7414L11.0606 20.4631C11.0709 20.6908 11.0871 20.9598 11.099 21.1608L27.0711 20.2162ZM24.3594 26.0886C24.2726 26.1656 24.199 26.2265 24.1439 26.2708C24.0879 26.3157 24.0416 26.351 24.0072 26.3766C23.9405 26.4262 23.8978 26.4547 23.8857 26.4627C23.8639 26.4771 23.8957 26.4552 23.9833 26.4068C24.0667 26.3609 24.1771 26.304 24.3071 26.2437C24.4367 26.1836 24.5723 26.1264 24.7066 26.076C24.8417 26.0253 24.9604 25.9871 25.0579 25.9602C25.1569 25.9329 25.2117 25.9235 25.2221 25.9219C25.2346 25.92 25.1674 25.9317 25.0304 25.9308C24.8942 25.9299 24.6445 25.9163 24.3132 25.8404L27.8868 10.2446C24.262 9.41401 20.8785 10.4228 19.0831 11.0968C17.2569 11.7824 15.1507 12.8702 13.7456 14.1158L24.3594 26.0886ZM24.3136 25.8405C23.4889 25.6516 22.4404 25.1574 21.5789 24.1946C20.783 23.3052 20.5517 22.4679 20.4956 22.2085L36.1339 18.826C35.7766 17.1738 35.0325 15.2353 33.5019 13.5249C31.9055 11.7411 29.9003 10.7059 27.8864 10.2445L24.3136 25.8405ZM20.4955 22.208C21.1253 25.121 21.0618 26.696 20.9471 27.4994C20.839 28.2559 20.6486 28.7321 20.1392 29.8639L34.7296 36.4305C35.307 35.1475 36.3362 32.9137 36.7864 29.7615C37.2299 26.6561 37.0632 23.1235 36.134 18.8265L20.4955 22.208ZM20.1398 29.8624C19.9345 30.3184 19.6093 31.0336 19.3189 31.8151L34.317 37.388C34.3882 37.1963 34.4862 36.9711 34.7289 36.432L20.1398 29.8624ZM19.3207 31.8101L19.1807 32.1862L34.1751 37.769L34.3151 37.393L19.3207 31.8101ZM19.1822 32.1821C18.8698 33.0198 18.3542 34.3708 18.0161 35.7591L33.5617 39.5451C33.6326 39.2542 33.7767 38.8372 34.1736 37.7731L19.1822 32.1821ZM25.8134 29.6521C26.3358 29.6537 26.6428 29.8792 26.7369 29.9774L15.1847 41.0475C17.912 43.8936 21.6823 45.6395 25.7644 45.652L25.8134 29.6521ZM23.1732 37.4747C23.408 37.5334 23.5987 37.604 23.7589 37.6752C23.9008 37.7382 24.1512 37.8601 24.48 38.0843L15.4652 51.303C16.5531 52.045 17.8966 52.6482 19.2948 52.9975L23.1732 37.4747ZM23.3806 51.9315C23.1092 52.0593 22.9179 52.123 22.8482 52.1447C22.7763 52.1671 22.7942 52.1572 22.9302 52.1292L19.7025 36.4582C18.5935 36.6866 17.537 36.998 16.5646 37.4559L23.3806 51.9315ZM22.9297 52.1293C24.7012 51.7646 26.7616 51.2738 28.6369 50.2204C30.8288 48.9892 32.0755 47.3764 32.7054 46.5766L20.1357 36.677C20.0074 36.8399 19.9442 36.9171 19.908 36.9599C19.8766 36.997 19.9048 36.961 19.9778 36.8885C20.0565 36.8102 20.1761 36.7003 20.3329 36.5801C20.4914 36.4586 20.6509 36.3548 20.8008 36.2706C21.0905 36.1079 21.2342 36.0807 21.046 36.1385C20.9548 36.1665 20.8053 36.2087 20.5765 36.2644C20.3483 36.32 20.0628 36.384 19.703 36.4581L22.9297 52.1293ZM32.7036 46.5789C32.9617 46.2514 33.1272 46.0433 33.3605 45.7826L21.4403 35.1098C20.843 35.7769 20.4087 36.3305 20.1375 36.6747L32.7036 46.5789ZM34.5558 44.024C34.302 44.5316 33.9962 45.008 33.6454 45.4462C33.3334 45.8358 33.0339 46.1263 33.0625 46.0977L21.7392 34.7936C21.7676 34.7651 21.468 35.0557 21.1559 35.4456C20.8048 35.8839 20.499 36.3606 20.245 36.8685L34.5558 44.024ZM33.3669 45.7754C33.3493 45.7951 31.9638 47.4571 29.2904 47.8429C27.9721 48.0331 26.911 47.824 26.323 47.6606C25.8672 47.5339 25.502 47.3697 25.7509 47.473L31.8803 32.6936C31.8727 32.6904 31.2796 32.4317 30.6072 32.2448C29.8024 32.0212 28.5358 31.7861 27.0052 32.0069C23.9075 32.4539 22.0711 34.4036 21.4348 35.1159L33.3669 45.7754ZM25.7559 47.475C24.2993 46.8721 23.4685 45.9675 23.0866 45.4763C22.6506 44.9155 22.3166 44.2745 22.1099 43.5526L37.4917 39.1479C37.1207 37.8524 36.502 36.664 35.7185 35.6561C34.9891 34.7179 33.7478 33.4666 31.8753 32.6915L25.7559 47.475ZM22.1105 43.5549C22.0174 43.2298 21.8616 42.5899 21.8783 41.7382C21.8953 40.8639 22.1093 39.3715 23.1697 37.8866L36.1907 47.1845C38.7666 43.5772 37.6733 39.7816 37.491 39.1457L22.1105 43.5549ZM23.1702 37.8859C23.1394 37.9289 23.1364 37.9256 23.1687 37.8944C23.2016 37.8626 23.2566 37.8158 23.3338 37.7656C23.4106 37.7156 23.4923 37.6732 23.5729 37.6401C23.6524 37.6075 23.7185 37.5888 23.7639 37.5788C23.8497 37.5597 23.8454 37.5743 23.7229 37.5675C23.5987 37.5606 23.4141 37.535 23.176 37.4754L19.2919 52.9968C23.1656 53.9662 30.9653 54.5007 36.1902 47.1852L23.1702 37.8859ZM37.4654 54.0778C37.1326 54.1491 37.2502 54.0732 37.67 54.1367C38.1477 54.2089 38.7305 54.4191 39.2716 54.8064C39.772 55.1645 40.0183 55.5172 40.0805 55.6136C40.1278 55.6869 40.0724 55.6182 39.9245 55.2484L25.0689 61.1908C25.6856 62.7324 27.0013 65.7002 29.9596 67.8174C33.2962 70.2054 37.1894 70.5001 40.8176 69.7227L37.4654 54.0778ZM39.9248 55.2492C40.217 55.98 40.1576 56.2464 40.0366 55.1763C39.9504 54.4135 39.8699 53.3301 39.8101 51.9566C39.6911 49.2257 39.6676 45.6803 39.7732 41.9089L23.7795 41.4611C23.6653 45.5395 23.6867 49.4732 23.8253 52.653C23.8942 54.2349 23.9956 55.7148 24.1379 56.9735C24.2454 57.9249 24.4611 59.671 25.0686 61.19L39.9248 55.2492ZM39.7733 41.9055C39.8012 40.8947 39.6561 39.9344 39.3897 39.058L24.0814 43.7117C23.8726 43.0248 23.7573 42.2663 23.7794 41.4645L39.7733 41.9055ZM39.6618 40.3013C39.5855 39.7431 39.4687 39.1838 39.3093 38.6274L23.9278 43.0328C23.8752 42.8493 23.8355 42.6604 23.8092 42.4684L39.6618 40.3013ZM39.3095 38.628C38.4239 35.535 36.1636 32.422 32.6024 30.946L26.4765 45.7269C25.5966 45.3622 25.0191 44.8449 24.6701 44.4264C24.3134 43.9985 24.0693 43.5271 23.9276 43.0322L39.3095 38.628ZM32.6015 30.9456C32.1694 30.7666 29.2632 29.4283 25.6431 30.3541L29.6075 45.8552C27.6624 46.3527 26.1501 45.5916 26.4774 45.7272L32.6015 30.9456ZM35.3994 39.9925C35.4425 39.8149 35.5592 39.4681 35.9448 38.4345L20.954 32.842C20.6683 33.608 20.1655 34.9228 19.8513 36.2168L35.3994 39.9925ZM35.947 38.4288L36.0879 38.0502L21.0928 32.4691L20.9519 32.8477L35.947 38.4288ZM36.0887 38.0479C36.1368 37.9186 36.2185 37.7289 36.4536 37.2065L21.8632 30.6399C21.6773 31.053 21.3612 31.7474 21.092 32.4714L36.0887 38.0479ZM36.4535 37.2068C37.0618 35.8554 38.1411 33.5038 38.6344 30.1789C39.1228 26.8876 38.9886 23.0812 37.9822 18.4268L22.3436 21.8083C23.0277 24.972 22.9599 26.8052 22.8077 27.8304C22.6606 28.8221 22.3924 29.4643 21.8634 30.6396L36.4535 37.2068ZM37.9821 18.4265C37.3232 15.3796 35.6807 12.3165 32.6324 10.255C29.6586 8.24387 26.3015 7.83189 23.3853 8.13395L25.0338 24.0488C25.3232 24.0188 24.6261 24.1558 23.6692 23.5087C22.6378 22.8112 22.3693 21.9272 22.3436 21.8086L37.9821 18.4265ZM23.3862 8.13386C20.0378 8.48033 17.2578 9.75507 16.0352 10.3749L23.2705 24.6455C23.4719 24.5434 23.794 24.3944 24.1652 24.2654C24.5512 24.1313 24.8506 24.0678 25.033 24.0489L23.3862 8.13386ZM16.0361 10.3744C15.7498 10.5196 15.4828 10.6622 15.2305 10.8031L23.0309 24.7728C23.1008 24.7338 23.1788 24.692 23.2695 24.646L16.0361 10.3744ZM27.1034 18.4491C27.1949 17.3456 27.4095 15.8653 27.8636 14.4371C28.3311 12.9666 28.9091 12.0033 29.4401 11.4677L18.0783 0.202244C12.4739 5.85456 11.4223 13.9406 11.1581 17.1269L27.1034 18.4491ZM29.4402 11.4676C29.8581 11.0461 30.5423 10.5832 32.2392 10.6112L32.5036 -5.38662C27.1326 -5.47538 22.0158 -3.76895 18.0783 0.20229L29.4402 11.4676ZM32.2403 10.6112C36.1898 10.6759 38.6562 12.6061 40.2127 14.4454L52.4262 4.1095C48.9429 -0.00660653 42.4791 -5.22321 32.5024 -5.38664L32.2403 10.6112ZM40.2125 14.4451C41.6429 16.1355 42.3601 17.7983 42.5542 18.3747L57.7178 13.2696C56.9733 11.058 55.3388 7.55145 52.4265 4.10976L40.2125 14.4451ZM50.9451 7.86316C46.5557 7.41695 40.2206 7.90225 36.435 13.3136L49.5453 22.4853C49.2711 22.8773 48.936 23.1946 48.5966 23.4234C48.2699 23.6438 48.0169 23.7305 47.9284 23.7562C47.8471 23.7799 47.9059 23.7521 48.1554 23.7379C48.4033 23.7238 48.7864 23.7262 49.3269 23.7811L50.9451 7.86316ZM36.435 13.3137C34.4729 16.1184 34.0558 19.1764 34.135 21.5555C34.2134 23.9138 34.7881 26.1253 35.3967 27.908C36.604 31.4441 38.4802 34.7686 39.4193 36.4526L53.3935 28.6601C52.3645 26.8148 51.2092 24.7026 50.5386 22.7385C50.2083 21.7711 50.1325 21.2166 50.1261 21.0235C50.1204 20.8511 50.184 21.5723 49.5454 22.4852L36.435 13.3137ZM39.4198 36.4535C39.6081 36.7911 39.7475 37.0414 39.8519 37.2346C39.8759 37.279 39.8946 37.314 39.9087 37.3408C39.9157 37.354 39.921 37.3641 39.9248 37.3715C39.9266 37.3751 39.9281 37.3779 39.929 37.3798C39.93 37.3817 39.9305 37.3826 39.9305 37.3825C39.9304 37.3825 39.9298 37.3813 39.9287 37.379C39.9276 37.3768 39.9258 37.3732 39.9234 37.3683C39.9188 37.3591 39.9108 37.3426 39.9001 37.3201C39.883 37.284 39.8378 37.1874 39.7813 37.0505L54.5723 30.949C54.2411 30.1464 53.5795 28.9937 53.393 28.6593L39.4198 36.4535ZM39.7815 37.0511C40.8867 39.7296 42.344 41.517 43.007 42.3455L55.4994 32.3485C54.9507 31.6629 54.7486 31.3765 54.5721 30.9485L39.7815 37.0511ZM43.0078 42.3465C43.0562 42.4069 43.0936 42.4537 43.1291 42.4983C43.1637 42.5418 43.1888 42.5737 43.2079 42.5982C43.227 42.6228 43.2347 42.6331 43.2343 42.6326C43.2343 42.6326 43.2192 42.6124 43.1939 42.5761L56.3182 33.4245C55.9976 32.9647 55.6312 32.5131 55.4986 32.3475L43.0078 42.3465ZM47.5392 30.3136C46.7043 30.5544 44.0888 31.3133 41.9208 33.7365C39.5779 36.355 38.7901 39.6776 38.9519 42.9717L54.9327 42.1863C54.9242 42.0151 54.9599 42.2411 54.8186 42.7105C54.6655 43.2194 54.3583 43.8311 53.8448 44.4051C52.8601 45.5056 51.739 45.7545 51.9728 45.687L47.5392 30.3136ZM38.9671 41.949C38.844 43.5077 37.8695 51.6234 37.4045 54.3185L53.1715 57.039C53.7258 53.8266 54.7584 45.2219 54.9174 43.209L38.9671 41.949ZM37.4044 54.3194C37.3529 54.618 37.3061 54.822 37.2707 54.9538C37.2355 55.0847 37.218 55.1198 37.2317 55.087C37.247 55.0506 37.2957 54.9425 37.3927 54.7924C37.4922 54.6384 37.6233 54.47 37.7855 54.3058C37.9472 54.1421 38.1049 54.0179 38.2359 53.9303C38.3628 53.8454 38.4423 53.8098 38.4434 53.8093C38.4437 53.8091 38.4256 53.8172 38.3856 53.832C38.3454 53.8468 38.2859 53.8673 38.2037 53.8923C38.0361 53.9435 37.7969 54.0067 37.4644 54.078L40.8185 69.7225C43.366 69.1763 46.5796 68.1702 49.1676 65.5507C51.8052 62.8809 52.7254 59.6262 53.1717 57.0382L37.4044 54.3194ZM53.2455 34.6487C53.3786 34.5869 53.4141 34.5828 53.3187 34.6121C53.2342 34.638 53.0923 34.6763 52.8965 34.717C52.4933 34.8009 52.0211 34.8624 51.5795 34.8832L52.3302 50.8656C54.6818 50.7551 57.63 50.2533 59.983 49.1609L53.2455 34.6487ZM51.5803 34.8831C51.085 34.9064 50.9542 34.8653 51.1176 34.8935C51.1947 34.9068 51.4294 34.9512 51.7735 35.0709C51.9468 35.1312 52.2048 35.2303 52.515 35.3847C52.7896 35.5213 53.306 35.7998 53.8863 36.2732L43.7719 48.6707C44.9 49.5911 46.0343 50.0148 46.5156 50.1823C47.1674 50.4091 47.8094 50.5592 48.3993 50.6609C49.5883 50.8659 50.9055 50.9323 52.3294 50.8656L51.5803 34.8831ZM56.8196 42.0828C56.8001 41.6818 57.0236 43.5435 55.425 45.4791C53.8882 47.3401 51.7547 47.712 52.5828 47.4794L48.2577 32.0751C48.2122 32.0879 45.2292 32.6983 43.0882 35.2908C40.8854 37.9581 40.7501 41.0445 40.8386 42.8611L56.8196 42.0828ZM52.5899 47.4775C52.6683 47.4554 53.0544 47.3499 53.4619 47.2074L48.1795 32.1045C48.2281 32.0875 48.2674 32.0746 48.2945 32.066C48.3215 32.0574 48.3393 32.0521 48.3445 32.0505C48.3492 32.0491 48.3462 32.0501 48.3294 32.0549C48.3213 32.0572 48.3113 32.06 48.2979 32.0638C48.2835 32.0679 48.2701 32.0716 48.2506 32.0771L52.5899 47.4775ZM45.7733 45.8627C46.0593 46.0953 46.3614 46.3173 46.6794 46.5271L55.4914 33.1724C55.6168 33.2552 55.7428 33.3473 55.8681 33.4492L45.7733 45.8627ZM46.6784 46.5265C49.1195 48.1377 51.8128 48.6026 53.9772 48.689C56.21 48.7781 58.5573 48.4903 60.8801 48.0109L57.6458 32.3412C56.0847 32.6634 55.1145 32.7216 54.6151 32.7017C54.3823 32.6924 54.3649 32.6699 54.5038 32.7065C54.6464 32.744 55.021 32.862 55.4923 33.1731L46.6784 46.5265ZM60.9278 48.0009C60.9051 48.0057 60.8868 48.0095 60.8746 48.012C60.8629 48.0144 60.8544 48.0161 60.8533 48.0163C60.8527 48.0164 60.8525 48.0165 60.8546 48.0161C60.856 48.0158 60.8598 48.015 60.8639 48.0142C60.8721 48.0126 60.8878 48.0094 60.9069 48.0055L57.7043 32.3293C57.7163 32.3269 57.7249 32.3251 57.7261 32.3249C57.7266 32.3248 57.7269 32.3247 57.7248 32.3252C57.7233 32.3255 57.7195 32.3262 57.7154 32.327C57.7011 32.3299 57.6549 32.3391 57.5982 32.3512L60.9278 48.0009ZM53.8414 34.3242C53.9246 34.2465 53.9166 34.2659 53.7988 34.3446C53.6886 34.4181 53.5049 34.5282 53.2452 34.6488L59.9834 49.1608C61.9763 48.2354 63.5902 47.1137 64.7697 46.0106L53.8414 34.3242Z" fill="#7B4AE2" fill-opacity="0.5" mask="url(#path-3-inside-1_21_3180)"/>
</svg>
